<svg xmlns="http://www.w3.org/2000/svg" xmlns:xlink="http://www.w3.org/1999/xlink" viewBox="0 0 401.77 399.86"><defs><style>.a{fill:url(#a);}.b{fill:#e5e5e5;}.c{fill:#999;}.d{fill:url(#b);}</style><linearGradient id="a" x1="138.26" y1="271.45" x2="138.26" y2="271.45" gradientUnits="userSpaceOnUse"><stop offset="0" stop-color="#b40017"/><stop offset="0.94" stop-color="#dc0018"/></linearGradient><linearGradient id="b" x1="85.12" y1="37.03" x2="172.72" y2="37.03" gradientTransform="translate(147.44 -77.72) rotate(46.61)" xlink:href="#a"/></defs><title>complete_dial</title><polygon class="a" points="138.26 271.45 138.26 271.45 138.26 271.45 138.26 271.45"/><path class="b" d="M207.66,370.74c-93.69,0-169.92-76.23-169.92-169.92S114,30.9,207.66,30.9s169.92,76.23,169.92,169.92S301.35,370.74,207.66,370.74Zm0-327.84c-87.08,0-157.92,70.84-157.92,157.92s70.84,157.92,157.92,157.92S365.58,287.9,365.58,200.82,294.74,42.9,207.66,42.9Z"/><path class="c" d="M200.77,0h4.13l6.38,12.52h0V0h3.21V16.74h-4.1L204,4.22h0V16.74h-3.21Z"/><path class="c" d="M211.93,385.9a8.69,8.69,0,0,0-3.41-.72c-1.15,0-2.64.5-2.64,2.33,0,2.9,7.34,1.68,7.34,7.29,0,3.67-2.9,5.06-6.28,5.06a14.77,14.77,0,0,1-4.29-.65l.31-3a8.09,8.09,0,0,0,3.79,1c1.27,0,3-.65,3-2.16,0-3.19-7.34-1.87-7.34-7.41,0-3.74,2.9-5.11,5.85-5.11a12.62,12.62,0,0,1,4,.6Z"/><path class="c" d="M391.84,191.92h9.88v2.64H395.2v4.13h6v2.64h-6V206h6.57v2.64h-9.93Z"/><path class="c" d="M0,191.92H3.53L6.64,205.3h0l2.85-13.38H14.1l3,13.38h0l3.14-13.38h3.26l-4.37,16.74H14.82l-3-13.38h0l-3,13.38H4.44Z"/><polygon class="c" points="203.95 352.71 203.79 376.72 209.82 376.75 209.81 362.81 210.58 352.81 203.95 352.71"/><polygon class="c" points="359.6 198.18 359.56 204.63 383.55 204.92 383.58 198.18 359.6 198.18"/><polygon class="c" points="31.74 203.06 36.9 203.1 55.72 202.79 55.75 197.28 31.75 197.11 31.74 203.06"/><polygon class="c" points="205.18 48.89 211.03 48.91 211.21 24.92 205.18 24.9 205.18 48.89"/><path class="d" d="M264.11,34.19a175.72,175.72,0,0,0-40.42-8.48L208,9.13,190.32,25.85a175.14,175.14,0,0,0-36.45,7.47l7.32,22.84a153.39,153.39,0,0,1,95.24.76Z"/></svg>