<svg xmlns="http://www.w3.org/2000/svg" viewBox="0 0 401.77 399.86"><defs><style>.a{fill:#e5e5e5;}.b{fill:#999;}</style></defs><title>dial</title><path class="a" d="M207.66,370.74c-93.69,0-169.92-76.23-169.92-169.92S114,30.9,207.66,30.9s169.92,76.23,169.92,169.92S301.35,370.74,207.66,370.74Zm0-327.84c-87.08,0-157.92,70.84-157.92,157.92s70.84,157.92,157.92,157.92S365.58,287.9,365.58,200.82,294.74,42.9,207.66,42.9Z"/><path class="b" d="M211.86,385.9a8.68,8.68,0,0,0-3.41-.72c-1.15,0-2.64.5-2.64,2.33,0,2.9,7.34,1.68,7.34,7.29,0,3.67-2.9,5.06-6.28,5.06a14.77,14.77,0,0,1-4.29-.65l.31-3a8.09,8.09,0,0,0,3.79,1c1.27,0,3-.65,3-2.16,0-3.19-7.34-1.87-7.34-7.41,0-3.74,2.9-5.11,5.85-5.11a12.63,12.63,0,0,1,4,.6Z"/><polygon class="b" points="209.75 376.75 203.72 376.72 203.88 352.71 210.51 352.82 209.74 362.81 209.75 376.75"/><path class="b" d="M0,191.92H3.53L6.64,205.3h0l2.85-13.38H14.1l3,13.38h0l3.14-13.38h3.26l-4.37,16.74H14.82l-3-13.38h0l-3,13.38H4.44Z"/><polygon class="b" points="36.9 203.1 31.74 203.06 31.75 197.11 55.75 197.28 55.72 202.79 36.9 203.1"/><path class="b" d="M200.85,0H205l6.38,12.52h0V0h3.21V16.74h-4.1l-6.4-12.52h0V16.74h-3.21Z"/><polygon class="b" points="211.1 48.91 205.25 48.89 205.25 24.9 211.28 24.92 211.1 48.91"/><path class="b" d="M391.84,191.92h9.88v2.64H395.2v4.13h6v2.64h-6V206h6.57v2.64h-9.93Z"/><polygon class="b" points="383.55 204.92 359.56 204.63 359.6 198.18 383.58 198.18 383.55 204.92"/></svg>