<svg xmlns="http://www.w3.org/2000/svg" viewBox="0 0 49.04 49.05"><defs><style>.a{fill:#999;}.b{fill:#eba550;}</style></defs><title>h24</title><path class="a" d="M45.7,15.95,44.24,2.56l-4.15,3A24.52,24.52,0,1,0,23.62,49l.92,0a24.59,24.59,0,0,0,4.4-.39l-.6-3.32a21.4,21.4,0,0,1-4.58.33,21.15,21.15,0,1,1,13.53-38l-3.9,2.86Z"/><path class="a" d="M33.75,43.57l1.48,3a24.53,24.53,0,0,0,7-5.12l-2.44-2.34A21.18,21.18,0,0,1,33.75,43.57Z"/><path class="a" d="M42.4,35.85l2.85,1.81a24.46,24.46,0,0,0,2.18-4.34l-3.15-1.21A21,21,0,0,1,42.4,35.85Z"/><path class="a" d="M45.66,25.31a21.43,21.43,0,0,1-.43,3.56l3.31.69a24.69,24.69,0,0,0,.5-4.12Z"/><path class="b" d="M9.47,29c.71-.63,1.61-1.41,2.48-2.22,1.53-1.43,4-3.67,4-5.91a2.39,2.39,0,0,0-2.66-2.2,6.89,6.89,0,0,0-3.17.89l-.2-1.7A9.22,9.22,0,0,1,13.53,17C16,17,18,18.39,18,21c0,2.3-2.48,4.76-4,6.28-.77.77-1.76,1.61-2.44,2.22h6.64v1.63H9.47Z"/><path class="b" d="M26.32,28H19.88V26.34l5.59-9.06H28.3v9.06H30V28H28.3v3.15h-2Zm0-9.06h0L22,26.34h4.36Z"/><path class="b" d="M32.11,16.25H34v6.2h0a3.71,3.71,0,0,1,3.25-1.69c2.62,0,3.79,1.63,3.79,4.34v6H39.18V25.89c0-2.36-.52-3.51-2.14-3.61C34.92,22.28,34,24,34,26.44v4.68H32.11Z"/></svg>