<svg xmlns="http://www.w3.org/2000/svg" viewBox="0 0 547.29 63.19"><defs><style>.a{fill:#282525;}.b{fill:red;}.c,.e{fill:#fff;}.d{fill:none;stroke:#e5e5e5;stroke-miterlimit:10;stroke-width:1.16px;}.e{opacity:0;}</style></defs><title>Fichier 1</title><path class="a" d="M311.16,4.82h2v5.77c0,1.7.54,2.82,2.08,2.82s2.07-1.12,2.07-2.82V4.82h2V11.2c0,2.68-1.52,3.79-4.08,3.79s-4.09-1.11-4.09-3.79Z"/><path class="a" d="M322.32,8.84H320.9V7.44h1.42v-1a2.26,2.26,0,0,1,2.35-2.51,6.42,6.42,0,0,1,1.4.16l-.15,1.59a1.53,1.53,0,0,0-.83-.26c-.65,0-.85.56-.85,1.13v.92h1.68v1.4h-1.68v6h-1.92Z"/><path class="a" d="M328.11,8.84h-1.42V7.44h1.42v-1a2.26,2.26,0,0,1,2.35-2.51,6.5,6.5,0,0,1,1.4.16l-.16,1.59a1.47,1.47,0,0,0-.83-.26c-.64,0-.84.56-.84,1.13v.92h1.67v1.4H330v6h-1.92Z"/><path class="a" d="M333.24,4.26h1.92V6.09h-1.92Zm0,3.18h1.92v7.37h-1.92Z"/><path class="a" d="M342.18,9a2.91,2.91,0,0,0-1.31-.27c-1.19,0-1.95.94-1.95,2.33s.65,2.41,2,2.41a3.92,3.92,0,0,0,1.47-.35l.09,1.59a6.3,6.3,0,0,1-1.92.25c-2.42,0-3.64-1.65-3.64-3.9s1.26-3.82,3.57-3.82a6.18,6.18,0,0,1,1.86.24Z"/><path class="a" d="M344,4.26h1.92V6.09H344Zm0,3.18h1.92v7.37H344Z"/><path class="a" d="M351.54,7.27a3.69,3.69,0,0,1,3.87,3.91,3.86,3.86,0,0,1-7.72,0A3.69,3.69,0,0,1,351.54,7.27Zm0,6.23c1.48,0,1.86-1.32,1.86-2.55a1.88,1.88,0,1,0-3.71,0C349.69,12.16,350.08,13.5,351.54,13.5Z"/><path class="a" d="M362,8.84h-1.42V7.44H362v-1a2.26,2.26,0,0,1,2.35-2.51,6.42,6.42,0,0,1,1.4.16l-.16,1.59a1.47,1.47,0,0,0-.83-.26c-.64,0-.84.56-.84,1.13v.92h1.67v1.4H364v6H362Z"/><path class="a" d="M373,14.4a5,5,0,0,1-2.54.59,3.51,3.51,0,0,1-3.85-3.83c0-2.13,1.13-3.89,3.42-3.89,2.74,0,3.51,1.87,3.51,4.45h-5.1a1.93,1.93,0,0,0,2.11,1.86,5,5,0,0,0,2.45-.74Zm-1.29-4c-.06-.93-.49-1.73-1.56-1.73a1.68,1.68,0,0,0-1.71,1.73Z"/><path class="a" d="M380.21,14h0a2.73,2.73,0,0,1-2.26,1c-2.27,0-3.1-1.87-3.1-3.89s.83-3.83,3.1-3.83a2.6,2.6,0,0,1,2.2,1h0V4.07h1.92V14.81h-1.86Zm-1.77-.48c1.28,0,1.69-1.35,1.69-2.4s-.48-2.34-1.71-2.34-1.59,1.36-1.59,2.34S377.19,13.5,378.44,13.5Z"/><path class="a" d="M390.18,14.4a5.08,5.08,0,0,1-2.54.59,3.51,3.51,0,0,1-3.85-3.83c0-2.13,1.13-3.89,3.42-3.89,2.74,0,3.51,1.87,3.51,4.45h-5.1a1.93,1.93,0,0,0,2.11,1.86,5,5,0,0,0,2.45-.74Zm-1.29-4c-.06-.93-.49-1.73-1.56-1.73a1.67,1.67,0,0,0-1.71,1.73Z"/><path class="a" d="M392.48,7.44h1.71V9.11h0a2.25,2.25,0,0,1,2-1.84,2.36,2.36,0,0,1,.58.05V9.26A1.93,1.93,0,0,0,396,9.1c-1.56,0-1.56,2-1.56,3v2.7h-1.92Z"/><path class="a" d="M398.56,7.82a6.61,6.61,0,0,1,2.56-.55c2.25,0,3.18.93,3.18,3.1v1c0,.74,0,1.3,0,1.85s0,1.07.09,1.64h-1.69a7,7,0,0,1-.09-1.1h0A2.62,2.62,0,0,1,400.33,15a2.36,2.36,0,0,1-2.58-2.2,2.17,2.17,0,0,1,1.27-2.1,5.78,5.78,0,0,1,2.47-.43h1.06c0-1.19-.53-1.59-1.66-1.59a3.92,3.92,0,0,0-2.28.8Zm2.25,5.76a1.6,1.6,0,0,0,1.34-.66,2.38,2.38,0,0,0,.4-1.51h-.83c-.86,0-2.13.14-2.13,1.27C399.59,13.31,400.12,13.58,400.81,13.58Z"/><path class="a" d="M406.45,4.07h1.92V14.81h-1.92Z"/><path class="a" d="M416.52,14.4A5,5,0,0,1,414,15a3.51,3.51,0,0,1-3.85-3.83c0-2.13,1.13-3.89,3.42-3.89,2.74,0,3.51,1.87,3.51,4.45H412a1.93,1.93,0,0,0,2.11,1.86,5,5,0,0,0,2.45-.74Zm-1.29-4c-.06-.93-.49-1.73-1.56-1.73A1.67,1.67,0,0,0,412,10.4Z"/><path class="a" d="M427.89,14h0a2.76,2.76,0,0,1-2.27,1c-2.26,0-3.09-1.87-3.09-3.89s.83-3.83,3.09-3.83a2.61,2.61,0,0,1,2.21,1h0V4.07h1.92V14.81h-1.87Zm-1.76-.48c1.28,0,1.69-1.35,1.69-2.4s-.49-2.34-1.72-2.34-1.59,1.36-1.59,2.34S424.87,13.5,426.13,13.5Z"/><path class="a" d="M432,4.26h1.92V6.09H432Zm0,3.18h1.92v7.37H432Z"/><path class="a" d="M440.31,7.44h1.79v1h0a2.6,2.6,0,0,1,2.19-1.2,2.15,2.15,0,0,1,2.18,1.3,2.52,2.52,0,0,1,2.31-1.3c1.82,0,2.33,1.24,2.33,2.89v4.65h-1.92V10.42c0-.69,0-1.66-1.1-1.66-1.28,0-1.43,1.51-1.43,2.47v3.58h-1.92V10.42c0-.69,0-1.66-1.11-1.66-1.27,0-1.43,1.51-1.43,2.47v3.58h-1.92Z"/><path class="a" d="M459.21,14.4a5,5,0,0,1-2.54.59,3.51,3.51,0,0,1-3.85-3.83c0-2.13,1.13-3.89,3.42-3.89,2.74,0,3.51,1.87,3.51,4.45h-5.1a1.93,1.93,0,0,0,2.11,1.86,5,5,0,0,0,2.45-.74Zm-1.29-4c-.06-.93-.49-1.73-1.56-1.73a1.67,1.67,0,0,0-1.71,1.73Z"/><path class="a" d="M462.1,8.84h-1.42V7.44h1.42V6L464,5.35V7.44h1.71v1.4H464v3.44c0,.63.17,1.22.9,1.22a1.71,1.71,0,0,0,.88-.2l.05,1.51a4.79,4.79,0,0,1-1.41.18,2.17,2.17,0,0,1-2.34-2.4Z"/><path class="a" d="M473.17,14.4a5,5,0,0,1-2.53.59,3.51,3.51,0,0,1-3.86-3.83c0-2.13,1.14-3.89,3.43-3.89,2.73,0,3.51,1.87,3.51,4.45h-5.1a1.92,1.92,0,0,0,2.1,1.86,4.94,4.94,0,0,0,2.45-.74Zm-1.29-4c-.05-.93-.48-1.73-1.56-1.73a1.66,1.66,0,0,0-1.7,1.73Z"/><path class="a" d="M478.82,7.27a3.69,3.69,0,0,1,3.87,3.91,3.87,3.87,0,0,1-7.73,0A3.69,3.69,0,0,1,478.82,7.27Zm0,6.23c1.47,0,1.86-1.32,1.86-2.55A1.88,1.88,0,1,0,477,11C477,12.16,477.36,13.5,478.82,13.5Z"/><path class="a" d="M484.45,7.44h1.7V9.11h0a2.26,2.26,0,0,1,2-1.84,2.39,2.39,0,0,1,.59.05V9.26a2,2,0,0,0-.86-.16c-1.56,0-1.56,2-1.56,3v2.7h-1.92Z"/><path class="a" d="M493.57,7.27a3.69,3.69,0,0,1,3.87,3.91,3.86,3.86,0,0,1-7.72,0A3.68,3.68,0,0,1,493.57,7.27Zm0,6.23c1.48,0,1.86-1.32,1.86-2.55a1.88,1.88,0,1,0-3.71,0C491.72,12.16,492.11,13.5,493.57,13.5Z"/><path class="a" d="M499.2,4.07h1.92V14.81H499.2Z"/><path class="a" d="M506.74,7.27a3.69,3.69,0,0,1,3.86,3.91,3.86,3.86,0,0,1-7.72,0A3.69,3.69,0,0,1,506.74,7.27Zm0,6.23c1.47,0,1.86-1.32,1.86-2.55a1.88,1.88,0,1,0-3.71,0C504.89,12.16,505.27,13.5,506.74,13.5Z"/><path class="a" d="M519.1,7.44V14.1c0,2-.8,3.89-3.9,3.89a6.43,6.43,0,0,1-2.55-.5l.16-1.63a5.47,5.47,0,0,0,2.15.64c2.12,0,2.22-1.59,2.22-2.86h0a2.64,2.64,0,0,1-2.29,1.17c-2.18,0-3-1.74-3-3.72,0-1.78.92-3.82,3.12-3.82a2.45,2.45,0,0,1,2.27,1.17h0v-1Zm-1.92,3.61c0-1.26-.49-2.29-1.61-2.29-1.3,0-1.72,1.2-1.72,2.33s.53,2.24,1.64,2.24S517.18,12.28,517.18,11.05Z"/><path class="a" d="M521.33,4.26h1.92V6.09h-1.92Zm0,3.18h1.92v7.37h-1.92Z"/><path class="a" d="M525.82,7.82a6.61,6.61,0,0,1,2.56-.55c2.25,0,3.18.93,3.18,3.1v1c0,.74,0,1.3,0,1.85s0,1.07.08,1.64H530a7,7,0,0,1-.09-1.1h0A2.62,2.62,0,0,1,527.59,15a2.36,2.36,0,0,1-2.58-2.2,2.16,2.16,0,0,1,1.27-2.1,5.78,5.78,0,0,1,2.47-.43h1.06c0-1.19-.53-1.59-1.66-1.59a3.92,3.92,0,0,0-2.28.8Zm2.25,5.76a1.6,1.6,0,0,0,1.34-.66,2.38,2.38,0,0,0,.4-1.51H529c-.86,0-2.13.14-2.13,1.27C526.85,13.31,527.38,13.58,528.07,13.58Z"/><path class="a" d="M543.78,14.4a5,5,0,0,1-2.54.59,3.51,3.51,0,0,1-3.85-3.83c0-2.13,1.13-3.89,3.42-3.89,2.74,0,3.51,1.87,3.51,4.45h-5.1a1.93,1.93,0,0,0,2.11,1.86,5,5,0,0,0,2.45-.74Zm-1.29-4c-.06-.93-.49-1.73-1.56-1.73a1.67,1.67,0,0,0-1.71,1.73Z"/><path class="a" d="M316.47,27.6a2.86,2.86,0,0,0-1.3-.27c-1.19,0-1.95,1-1.95,2.34s.64,2.4,2,2.4a4.19,4.19,0,0,0,1.48-.34l.08,1.59a6.32,6.32,0,0,1-1.92.24c-2.42,0-3.64-1.65-3.64-3.89s1.26-3.83,3.57-3.83a6.52,6.52,0,0,1,1.86.24Z"/><path class="a" d="M318.3,22.65h1.92V33.39H318.3Z"/><path class="a" d="M322.5,22.83h1.92v1.84H322.5Zm0,3.18h1.92v7.38H322.5Z"/><path class="a" d="M326.63,26h1.79v1h0a2.59,2.59,0,0,1,2.19-1.2,2.15,2.15,0,0,1,2.17,1.3,2.56,2.56,0,0,1,2.31-1.3c1.82,0,2.34,1.25,2.34,2.89v4.66h-1.92V29c0-.69,0-1.66-1.11-1.66-1.27,0-1.43,1.52-1.43,2.48v3.58h-1.92V29c0-.69,0-1.66-1.1-1.66-1.28,0-1.43,1.52-1.43,2.48v3.58h-1.92Z"/><path class="a" d="M339.93,26.4a6.71,6.71,0,0,1,2.57-.56c2.25,0,3.18.93,3.18,3.11v.94c0,.75,0,1.31,0,1.85s0,1.08.08,1.65H344.1a8.31,8.31,0,0,1-.08-1.1h0a2.66,2.66,0,0,1-2.28,1.27,2.36,2.36,0,0,1-2.58-2.19,2.18,2.18,0,0,1,1.26-2.11,6,6,0,0,1,2.48-.43h1.06c0-1.18-.53-1.59-1.66-1.59a3.86,3.86,0,0,0-2.28.81Zm2.25,5.76a1.64,1.64,0,0,0,1.35-.66,2.5,2.5,0,0,0,.4-1.52h-.83c-.86,0-2.14.14-2.14,1.28C341,31.88,341.5,32.16,342.18,32.16Z"/><path class="a" d="M348.41,27.42H347V26h1.41V24.54l1.92-.62V26H352v1.41h-1.71v3.43c0,.63.18,1.22.91,1.22a1.7,1.7,0,0,0,.87-.2l.06,1.52a5.26,5.26,0,0,1-1.42.17,2.17,2.17,0,0,1-2.34-2.39Z"/><path class="a" d="M357,25.84a3.7,3.7,0,0,1,3.87,3.91,3.86,3.86,0,0,1-7.72,0A3.69,3.69,0,0,1,357,25.84Zm0,6.23c1.48,0,1.86-1.32,1.86-2.55A1.94,1.94,0,0,0,357,27.33a2,2,0,0,0-1.85,2.19C355.1,30.74,355.49,32.07,357,32.07Z"/><path class="a" d="M362.58,22.65h1.92V33.39h-1.92Z"/><path class="a" d="M370.12,25.84A3.69,3.69,0,0,1,374,29.75a3.86,3.86,0,0,1-7.72,0A3.7,3.7,0,0,1,370.12,25.84Zm0,6.23c1.47,0,1.86-1.32,1.86-2.55a1.88,1.88,0,1,0-3.71,0C368.27,30.74,368.66,32.07,370.12,32.07Z"/><path class="a" d="M382.48,26v6.66c0,2-.8,3.9-3.9,3.9a6.61,6.61,0,0,1-2.55-.5l.16-1.63a5.64,5.64,0,0,0,2.15.64c2.12,0,2.22-1.59,2.22-2.87h0a2.62,2.62,0,0,1-2.29,1.18c-2.18,0-3-1.75-3-3.72,0-1.78.92-3.83,3.12-3.83A2.46,2.46,0,0,1,380.62,27h0V26Zm-1.92,3.61c0-1.26-.49-2.29-1.61-2.29-1.3,0-1.71,1.2-1.71,2.34s.53,2.23,1.63,2.23S380.56,30.85,380.56,29.62Z"/><path class="a" d="M384.71,22.83h1.92v1.84h-1.92Zm0,3.18h1.92v7.38h-1.92Z"/><path class="a" d="M389.2,26.4a6.62,6.62,0,0,1,2.56-.56c2.25,0,3.18.93,3.18,3.11v.94c0,.75,0,1.31,0,1.85s0,1.08.08,1.65h-1.69a8.31,8.31,0,0,1-.08-1.1h0A2.64,2.64,0,0,1,391,33.56a2.36,2.36,0,0,1-2.58-2.19,2.18,2.18,0,0,1,1.26-2.11,6,6,0,0,1,2.48-.43h1.06c0-1.18-.53-1.59-1.66-1.59a3.86,3.86,0,0,0-2.28.81Zm2.25,5.76a1.63,1.63,0,0,0,1.34-.66,2.43,2.43,0,0,0,.4-1.52h-.83c-.86,0-2.13.14-2.13,1.28C390.23,31.88,390.76,32.16,391.45,32.16Z"/><path class="a" d="M401.41,23.39h3.21L407,31h0l2.38-7.58h3.21v10H410.7V25.14h0L408,33.39h-1.92l-2.7-8.25,0,0v8.22h-1.92Z"/><path class="a" d="M420.9,33a5.08,5.08,0,0,1-2.54.59,3.5,3.5,0,0,1-3.85-3.82c0-2.14,1.13-3.9,3.42-3.9,2.74,0,3.51,1.88,3.51,4.45h-5.1a1.94,1.94,0,0,0,2.11,1.87,5,5,0,0,0,2.45-.75Zm-1.29-4c-.06-.93-.49-1.74-1.56-1.74A1.68,1.68,0,0,0,416.34,29Z"/><path class="a" d="M423.79,27.42h-1.42V26h1.42V24.54l1.92-.62V26h1.7v1.41h-1.7v3.43c0,.63.17,1.22.9,1.22a1.71,1.71,0,0,0,.88-.2l.05,1.52a5.21,5.21,0,0,1-1.42.17,2.17,2.17,0,0,1-2.33-2.39Z"/><path class="a" d="M434.86,33a5,5,0,0,1-2.53.59,3.51,3.51,0,0,1-3.86-3.82c0-2.14,1.14-3.9,3.43-3.9,2.73,0,3.51,1.88,3.51,4.45h-5.1a1.92,1.92,0,0,0,2.1,1.87,5,5,0,0,0,2.45-.75Zm-1.29-4c-.05-.93-.48-1.74-1.56-1.74a1.67,1.67,0,0,0-1.7,1.74Z"/><path class="a" d="M440.51,25.84a3.7,3.7,0,0,1,3.87,3.91,3.87,3.87,0,0,1-7.73,0A3.7,3.7,0,0,1,440.51,25.84Zm0,6.23c1.47,0,1.86-1.32,1.86-2.55a1.88,1.88,0,1,0-3.71,0C438.66,30.74,439.05,32.07,440.51,32.07Z"/><path class="a" d="M451.64,25.22a5.21,5.21,0,0,0-2-.43A1.4,1.4,0,0,0,448,26.18c0,1.74,4.38,1,4.38,4.36,0,2.19-1.73,3-3.75,3a8.64,8.64,0,0,1-2.57-.39l.19-1.8a4.88,4.88,0,0,0,2.26.62c.76,0,1.78-.39,1.78-1.29,0-1.91-4.38-1.12-4.38-4.43,0-2.23,1.73-3.05,3.49-3.05a7.35,7.35,0,0,1,2.39.36Z"/><path class="a" d="M453.46,26h2.06l1.83,5.37h0L459.16,26h1.92l-2.73,7.38h-2.16Z"/><path class="a" d="M462.5,22.83h1.91v1.84H462.5Zm0,3.18h1.91v7.38H462.5Z"/><path class="a" d="M466.33,26h5.85v1.58l-3.67,4.31h3.8v1.49h-6.13V31.83l3.74-4.33h-3.59Z"/><path class="a" d="M473.71,26h5.85v1.58l-3.67,4.31h3.8v1.49h-6.14V31.83l3.74-4.33h-3.58Z"/><path class="a" d="M487.32,33a5,5,0,0,1-2.54.59,3.5,3.5,0,0,1-3.85-3.82c0-2.14,1.13-3.9,3.42-3.9,2.74,0,3.51,1.88,3.51,4.45h-5.1a1.94,1.94,0,0,0,2.11,1.87,5,5,0,0,0,2.45-.75ZM486,29c-.06-.93-.49-1.74-1.56-1.74A1.69,1.69,0,0,0,482.76,29Z"/><path class="a" d="M489.63,26h1.7v1.68h0a2.26,2.26,0,0,1,2-1.85,2,2,0,0,1,.59.06v1.93a2,2,0,0,0-.86-.16c-1.56,0-1.56,1.95-1.56,3v2.71h-1.92Z"/><path class="a" d="M495.7,26.4a6.66,6.66,0,0,1,2.56-.56c2.25,0,3.18.93,3.18,3.11v.94c0,.75,0,1.31,0,1.85s0,1.08.09,1.65h-1.69a10.91,10.91,0,0,1-.09-1.1h0a2.63,2.63,0,0,1-2.27,1.27,2.35,2.35,0,0,1-2.58-2.19,2.18,2.18,0,0,1,1.26-2.11,6,6,0,0,1,2.48-.43h1.06c0-1.18-.53-1.59-1.67-1.59a3.83,3.83,0,0,0-2.27.81ZM498,32.16a1.62,1.62,0,0,0,1.34-.66A2.44,2.44,0,0,0,499.7,30h-.83c-.86,0-2.14.14-2.14,1.28C496.73,31.88,497.26,32.16,498,32.16Z"/><path d="M47.89,12.23a3.26,3.26,0,0,0,1.85.5A1.67,1.67,0,0,0,51.63,11c0-1.65-3.84-1.85-3.84-4,0-1.34,1.17-2.18,2.65-2.18a5.17,5.17,0,0,1,1.65.27L52,5.81a3.32,3.32,0,0,0-1.52-.31c-.87,0-1.82.36-1.82,1.44,0,1.68,3.85,1.69,3.85,4.14a2.46,2.46,0,0,1-2.75,2.37,4.81,4.81,0,0,1-1.9-.36Z"/><path d="M59,8a3.48,3.48,0,0,0-1.31-.31,2.28,2.28,0,0,0-2.31,2.56,2.32,2.32,0,0,0,2.22,2.56A4,4,0,0,0,59,12.52l.07.71a4.58,4.58,0,0,1-1.58.22,2.9,2.9,0,0,1-2.93-3.21,3,3,0,0,1,3-3.21A4.7,4.7,0,0,1,59,7.27Z"/><path d="M61.24,4.3H62V8.21h0A2.09,2.09,0,0,1,63.93,7C65.58,7,66,8.13,66,9.64V13.3h-.76V9.65c0-1.05-.2-2-1.45-2S62,9,62,10V13.3h-.76Z"/><path d="M75.15,13.3h-.91L72.57,8h0L70.87,13.3H70L68,7.18h.83l1.61,5.3h0l1.71-5.3h.91l1.62,5.3h0l1.69-5.3h.76Z"/><path d="M83.23,13.11a4.88,4.88,0,0,1-1.77.34c-2,0-2.79-1.37-2.79-3.21S79.7,7,81.25,7c1.73,0,2.44,1.4,2.44,3v.39H79.5a2.07,2.07,0,0,0,2,2.34,3.89,3.89,0,0,0,1.71-.46Zm-.37-3.3c0-1.07-.43-2.13-1.56-2.13a2,2,0,0,0-1.8,2.13Z"/><path d="M86.83,5.54h-.76v-1h.76Zm-.76,1.64h.76V13.3h-.76Z"/><path d="M89.11,12.67l3.68-4.84H89.25V7.18h4.42v.65L90,12.66h3.69v.64H89.11Z"/><path d="M100.05,13.11a4.94,4.94,0,0,1-1.78.34c-2,0-2.78-1.37-2.78-3.21S96.52,7,98.07,7c1.73,0,2.44,1.4,2.44,3v.39h-4.2a2.07,2.07,0,0,0,2,2.34,3.94,3.94,0,0,0,1.72-.46Zm-.37-3.3c0-1.07-.43-2.13-1.56-2.13a2,2,0,0,0-1.81,2.13Z"/><path d="M102.87,8.55a13.21,13.21,0,0,0,0-1.37h.75V8.36h0A1.81,1.81,0,0,1,105.18,7a2,2,0,0,1,.53.08V7.9a1.93,1.93,0,0,0-.55-.07c-1.21,0-1.53,1.34-1.53,2.45v3h-.76Z"/><path d="M108.57,5.54h-.76v-1h.76Zm-.76,1.64h.76V13.3h-.76Z"/><path d="M110.94,12.42a3.73,3.73,0,0,0,1.6.38c.72,0,1.36-.4,1.36-1.09,0-1.46-2.94-1.23-2.94-3,0-1.21,1-1.67,2-1.67a4.93,4.93,0,0,1,1.51.28l-.07.66A3.53,3.53,0,0,0,113,7.68c-.78,0-1.32.24-1.32,1,0,1.14,3,1,3,3,0,1.29-1.21,1.74-2.14,1.74a4.54,4.54,0,0,1-1.72-.29Z"/><path d="M121,8a3.48,3.48,0,0,0-1.31-.31,2.28,2.28,0,0,0-2.31,2.56,2.33,2.33,0,0,0,2.23,2.56,3.91,3.91,0,0,0,1.38-.28l.07.71a4.56,4.56,0,0,1-1.57.22,2.9,2.9,0,0,1-2.93-3.21,3,3,0,0,1,3-3.21,4.64,4.64,0,0,1,1.48.24Z"/><path d="M123.29,4.3h.76V8.21h0A2.09,2.09,0,0,1,126,7c1.65,0,2.09,1.1,2.09,2.61V13.3h-.75V9.65c0-1.05-.21-2-1.46-2S124.05,9,124.05,10V13.3h-.76Z"/><path d="M135,13.11a4.88,4.88,0,0,1-1.77.34c-2,0-2.79-1.37-2.79-3.21S131.47,7,133,7c1.73,0,2.44,1.4,2.44,3v.39h-4.19a2.07,2.07,0,0,0,2,2.34,3.89,3.89,0,0,0,1.71-.46Zm-.37-3.3c0-1.07-.43-2.13-1.56-2.13a2,2,0,0,0-1.8,2.13Z"/><path d="M142.19,4.92h4.11v.72H143v3h3.11v.72H143v3.23h3.42v.72h-4.25Z"/><path d="M149.79,5.54H149v-1h.76ZM149,7.18h.76V13.3H149Z"/><path d="M157.49,13.3h-.76v-1h0a2,2,0,0,1-1.91,1.12c-1.68,0-2.52-1.39-2.52-3.21S153,7,154.8,7a2.07,2.07,0,0,1,1.91,1.18h0V4.3h.76Zm-2.57-.5c1.35,0,1.81-1.44,1.81-2.56s-.46-2.56-1.81-2.56-1.81,1.37-1.81,2.56S153.48,12.8,154.92,12.8Z"/><path d="M165.11,12.8c0,1.71-.77,3.1-2.87,3.1a6.13,6.13,0,0,1-1.85-.33l.06-.75a4.12,4.12,0,0,0,1.8.43c1.94,0,2.11-1.42,2.11-3.15h0a1.9,1.9,0,0,1-1.86,1.2c-2,0-2.59-1.7-2.59-3.06,0-1.86.72-3.21,2.53-3.21a2,2,0,0,1,1.91.85h0v-.7h.76Zm-2.62-.14c1.37,0,1.86-1.3,1.86-2.42,0-1.48-.43-2.56-1.81-2.56s-1.82,1.37-1.82,2.56S161.2,12.66,162.49,12.66Z"/><path d="M172,13.11a5,5,0,0,1-1.78.34c-2,0-2.79-1.37-2.79-3.21S168.45,7,170,7c1.73,0,2.43,1.4,2.43,3v.39h-4.19a2.07,2.07,0,0,0,2,2.34,3.94,3.94,0,0,0,1.72-.46Zm-.37-3.3c0-1.07-.44-2.13-1.57-2.13a2,2,0,0,0-1.8,2.13Z"/><path d="M174.81,8.62a14.05,14.05,0,0,0-.05-1.44h.74V8.27h0a2,2,0,0,1,2-1.24c1.52,0,2.09,1,2.09,2.36V13.3h-.75V9.58c0-1.15-.41-1.9-1.46-1.9-1.38,0-1.81,1.22-1.81,2.24V13.3h-.76Z"/><path d="M184.81,7c2,0,2.86,1.54,2.86,3.21s-.88,3.21-2.86,3.21S182,11.91,182,10.24,182.82,7,184.81,7Zm0,5.77c1.32,0,2-1.14,2-2.56s-.71-2.56-2-2.56-2,1.14-2,2.56S183.49,12.8,184.81,12.8Z"/><path d="M189.56,12.42a3.73,3.73,0,0,0,1.6.38c.72,0,1.36-.4,1.36-1.09,0-1.46-2.94-1.23-2.94-3,0-1.21,1-1.67,2-1.67a5,5,0,0,1,1.51.28L193,8a3.61,3.61,0,0,0-1.36-.29c-.78,0-1.32.24-1.32,1,0,1.14,3,1,3,3,0,1.29-1.22,1.74-2.14,1.74a4.54,4.54,0,0,1-1.72-.29Z"/><path d="M195.17,12.42a3.73,3.73,0,0,0,1.6.38c.72,0,1.36-.4,1.36-1.09,0-1.46-2.94-1.23-2.94-3,0-1.21,1-1.67,2-1.67a5,5,0,0,1,1.51.28l-.07.66a3.61,3.61,0,0,0-1.36-.29c-.78,0-1.32.24-1.32,1,0,1.14,3,1,3,3,0,1.29-1.22,1.74-2.14,1.74a4.54,4.54,0,0,1-1.72-.29Z"/><path d="M205.36,13.11a4.94,4.94,0,0,1-1.78.34c-2,0-2.78-1.37-2.78-3.21s1-3.21,2.58-3.21c1.73,0,2.44,1.4,2.44,3v.39h-4.2a2.07,2.07,0,0,0,2,2.34,3.94,3.94,0,0,0,1.72-.46ZM205,9.81c0-1.07-.44-2.13-1.56-2.13a2,2,0,0,0-1.81,2.13Z"/><path d="M208.19,8.62c0-.47,0-.95,0-1.44h.73V8.27h0a2,2,0,0,1,2-1.24C212.4,7,213,8,213,9.39V13.3h-.76V9.58c0-1.15-.41-1.9-1.46-1.9-1.38,0-1.81,1.22-1.81,2.24V13.3h-.76Z"/><path d="M215.34,12.42a3.73,3.73,0,0,0,1.6.38c.72,0,1.36-.4,1.36-1.09,0-1.46-3-1.23-3-3,0-1.21,1-1.67,2-1.67a5,5,0,0,1,1.51.28l-.07.66a3.61,3.61,0,0,0-1.36-.29c-.78,0-1.32.24-1.32,1,0,1.14,3,1,3,3,0,1.29-1.21,1.74-2.13,1.74a4.54,4.54,0,0,1-1.72-.29Z"/><path d="M225.41,8a3.48,3.48,0,0,0-1.31-.31,2.28,2.28,0,0,0-2.31,2.56A2.32,2.32,0,0,0,224,12.8a4,4,0,0,0,1.39-.28l.07.71a4.58,4.58,0,0,1-1.58.22A2.9,2.9,0,0,1,221,10.24,3,3,0,0,1,224,7a4.7,4.7,0,0,1,1.48.24Z"/><path d="M227.69,4.3h.76V8.21h0A2.08,2.08,0,0,1,230.38,7c1.65,0,2.09,1.1,2.09,2.61V13.3h-.76V9.65c0-1.05-.2-2-1.45-2S228.45,9,228.45,10V13.3h-.76Z"/><path d="M238.82,12.32h0a2.17,2.17,0,0,1-2,1.13c-1.74,0-2-1.18-2-1.73,0-2.06,2.18-2.15,3.77-2.15h.14V9.26c0-1-.37-1.58-1.39-1.58a3.24,3.24,0,0,0-1.8.51V7.45a5,5,0,0,1,1.8-.42c1.51,0,2.15.69,2.15,2.29V12a8.66,8.66,0,0,0,.06,1.28h-.75Zm-.07-2.1h-.21c-1.31,0-2.87.13-2.87,1.48,0,.8.57,1.1,1.27,1.1,1.78,0,1.81-1.55,1.81-2.21Z"/><path d="M242.77,7.83h-1.24V7.18h1.24V6.73c0-1.28,0-2.58,1.62-2.58a1.85,1.85,0,0,1,.71.12l0,.66a1.43,1.43,0,0,0-.6-.13c-1,0-.93,1.12-.93,1.85v.53h1.38v.65h-1.38V13.3h-.75Z"/><path d="M249.82,7.83h-1.4v4c0,.55.21,1,.82,1a1.85,1.85,0,0,0,.7-.14l0,.62a2.79,2.79,0,0,1-.92.17c-1.35,0-1.4-.93-1.4-2V7.83h-1.2V7.18h1.2V5.7l.76-.26V7.18h1.4Z"/><path d="M53.88,22.43A4.47,4.47,0,0,0,52,22.07a3.3,3.3,0,0,0-3.4,3.62c0,2.11,1.19,3.62,3.4,3.62A4.29,4.29,0,0,0,53.88,29l0,.72A4.59,4.59,0,0,1,52,30a4,4,0,0,1-4.23-4.34A4,4,0,0,1,52,21.35a5.38,5.38,0,0,1,1.92.32Z"/><path d="M59.38,23.61c2,0,2.86,1.54,2.86,3.21S61.36,30,59.38,30s-2.86-1.54-2.86-3.21S57.4,23.61,59.38,23.61Zm0,5.77c1.32,0,2-1.14,2-2.56s-.71-2.56-2-2.56-2,1.14-2,2.56S58.06,29.38,59.38,29.38Z"/><path d="M64.6,25.2a14.05,14.05,0,0,0,0-1.44h.74v1.09h0a2,2,0,0,1,2-1.24c1.52,0,2.09,1,2.09,2.36v3.91h-.75V26.16c0-1.15-.41-1.9-1.46-1.9-1.38,0-1.81,1.21-1.81,2.23v3.39H64.6Z"/><path d="M72.72,24.41H71.49v-.65h1.23v-.45c0-1.28,0-2.58,1.62-2.58a1.81,1.81,0,0,1,.71.12l0,.66a1.44,1.44,0,0,0-.61-.13c-1,0-.92,1.12-.92,1.85v.53h1.38v.65H73.48v5.47h-.76Z"/><path d="M81.24,29.69a4.94,4.94,0,0,1-1.78.34c-2,0-2.79-1.37-2.79-3.21s1-3.21,2.59-3.21c1.73,0,2.44,1.4,2.44,3V27H77.5a2.07,2.07,0,0,0,2,2.34,3.94,3.94,0,0,0,1.72-.46Zm-.37-3.3c0-1.07-.44-2.13-1.57-2.13a2,2,0,0,0-1.8,2.13Zm-1.26-5h.94L79,23.12h-.55Z"/><path d="M88.91,29.88h-.75v-1h0A2,2,0,0,1,86.22,30c-1.68,0-2.52-1.4-2.52-3.21s.72-3.21,2.52-3.21a2.06,2.06,0,0,1,1.91,1.18h0V20.87h.75Zm-2.57-.5c1.35,0,1.82-1.44,1.82-2.56s-.47-2.56-1.82-2.56-1.81,1.37-1.81,2.56S84.9,29.38,86.34,29.38Z"/><path d="M95.79,29.69A5,5,0,0,1,94,30c-2,0-2.79-1.37-2.79-3.21s1-3.21,2.58-3.21c1.73,0,2.44,1.4,2.44,3V27H92.05a2.07,2.07,0,0,0,2,2.34,3.94,3.94,0,0,0,1.72-.46Zm-.38-3.3c0-1.07-.43-2.13-1.56-2.13a2,2,0,0,0-1.8,2.13Zm-1.26-5h.95l-1.51,1.73H93Z"/><path d="M98.62,25.13a10.5,10.5,0,0,0-.05-1.37h.76v1.17h0a1.83,1.83,0,0,1,1.58-1.32,2.72,2.72,0,0,1,.53.07v.8a2,2,0,0,0-.56-.07c-1.2,0-1.52,1.34-1.52,2.45v3h-.76Z"/><path d="M107.07,28.9h0A2.16,2.16,0,0,1,105.1,30c-1.75,0-2-1.18-2-1.73,0-2.06,2.18-2.15,3.77-2.15H107v-.32c0-1-.37-1.57-1.39-1.57a3.24,3.24,0,0,0-1.8.51V24a4.79,4.79,0,0,1,1.8-.42c1.51,0,2.15.69,2.15,2.28V28.6a8.66,8.66,0,0,0,.06,1.28h-.74ZM107,26.8h-.21c-1.31,0-2.87.13-2.87,1.47,0,.81.57,1.11,1.27,1.11,1.78,0,1.81-1.55,1.81-2.21Z"/><path d="M113.13,24.41h-1.39v4c0,.55.2,1,.82,1a1.63,1.63,0,0,0,.69-.15l0,.63a2.8,2.8,0,0,1-.93.17C111,30,111,29.1,111,28V24.41h-1.2v-.65H111V22.28l.76-.27v1.75h1.39Z"/><path d="M116.18,22.12h-.75v-1h.75Zm-.75,1.64h.75v6.12h-.75Z"/><path d="M121.42,23.61c2,0,2.86,1.54,2.86,3.21S123.4,30,121.42,30s-2.86-1.54-2.86-3.21S119.44,23.61,121.42,23.61Zm0,5.77c1.32,0,2-1.14,2-2.56s-.71-2.56-2-2.56-2,1.14-2,2.56S120.1,29.38,121.42,29.38Z"/><path d="M126.63,25.2c0-.47,0-.95,0-1.44h.73v1.09h0a2,2,0,0,1,2-1.24c1.52,0,2.09,1,2.09,2.36v3.91h-.75V26.16c0-1.15-.41-1.9-1.46-1.9-1.38,0-1.81,1.21-1.81,2.23v3.39h-.76Z"/><path d="M138.05,29a3.52,3.52,0,0,0,1.59.39c.72,0,1.36-.4,1.36-1.09,0-1.46-2.94-1.23-2.94-3,0-1.21,1-1.67,2-1.67a4.64,4.64,0,0,1,1.51.28l-.07.66a3.53,3.53,0,0,0-1.36-.29c-.78,0-1.32.24-1.32,1,0,1.14,3,1,3,3,0,1.29-1.21,1.74-2.14,1.74a4.75,4.75,0,0,1-1.72-.29Z"/><path d="M148.9,28.44a14.05,14.05,0,0,0,0,1.44h-.73V28.79h0a1.94,1.94,0,0,1-2,1.24c-1.51,0-2.09-1-2.09-2.36V23.76h.76v3.72c0,1.15.41,1.9,1.45,1.9,1.38,0,1.82-1.22,1.82-2.24V23.76h.75Z"/><path d="M152.49,22.12h-.75v-1h.75Zm-.75,1.64h.75v6.12h-.75Z"/><path d="M154.87,29a3.6,3.6,0,0,0,1.6.39c.72,0,1.36-.4,1.36-1.09,0-1.46-2.94-1.23-2.94-3,0-1.21,1-1.67,2-1.67a4.68,4.68,0,0,1,1.51.28l-.07.66a3.61,3.61,0,0,0-1.36-.29c-.78,0-1.32.24-1.32,1,0,1.14,3,1,3,3,0,1.29-1.22,1.74-2.14,1.74a4.75,4.75,0,0,1-1.72-.29Z"/><path d="M160.48,29a3.6,3.6,0,0,0,1.6.39c.72,0,1.36-.4,1.36-1.09,0-1.46-2.95-1.23-2.95-3,0-1.21,1-1.67,2-1.67a4.68,4.68,0,0,1,1.51.28l-.07.66a3.61,3.61,0,0,0-1.36-.29c-.78,0-1.32.24-1.32,1,0,1.14,3,1,3,3,0,1.29-1.22,1.74-2.14,1.74a4.75,4.75,0,0,1-1.72-.29Z"/><path d="M170.67,29.69a4.94,4.94,0,0,1-1.78.34c-2,0-2.79-1.37-2.79-3.21s1-3.21,2.59-3.21c1.73,0,2.44,1.4,2.44,3V27h-4.2a2.07,2.07,0,0,0,2,2.34,3.94,3.94,0,0,0,1.72-.46Zm-.37-3.3c0-1.07-.44-2.13-1.57-2.13a2,2,0,0,0-1.8,2.13Z"/><path d="M53.88,39A4.47,4.47,0,0,0,52,38.65a3.3,3.3,0,0,0-3.4,3.62c0,2.11,1.19,3.61,3.4,3.61a4.15,4.15,0,0,0,1.88-.36l0,.72A4.44,4.44,0,0,1,52,46.6a4,4,0,0,1-4.23-4.33A4,4,0,0,1,52,37.93a5.6,5.6,0,0,1,1.92.31Z"/><path d="M59.38,40.19c2,0,2.86,1.54,2.86,3.21s-.88,3.2-2.86,3.2-2.86-1.53-2.86-3.2S57.4,40.19,59.38,40.19Zm0,5.77c1.32,0,2-1.15,2-2.56s-.71-2.56-2-2.56-2,1.14-2,2.56S58.06,46,59.38,46Z"/><path d="M64.6,41.78a14.34,14.34,0,0,0,0-1.45h.74v1.1h0a1.93,1.93,0,0,1,2-1.24c1.52,0,2.09,1,2.09,2.35v3.92h-.75V42.74c0-1.16-.41-1.9-1.46-1.9-1.38,0-1.81,1.21-1.81,2.23v3.39H64.6Z"/><path d="M72.72,41H71.49v-.65h1.23v-.44c0-1.29,0-2.58,1.62-2.58a1.65,1.65,0,0,1,.71.12l0,.66A1.31,1.31,0,0,0,74.4,38c-1,0-.92,1.11-.92,1.84v.53h1.38V41H73.48v5.48h-.76Z"/><path d="M81.24,46.27a5.15,5.15,0,0,1-1.78.33c-2,0-2.79-1.36-2.79-3.2s1-3.21,2.59-3.21c1.73,0,2.44,1.39,2.44,3v.38H77.5a2.08,2.08,0,0,0,2,2.35,3.94,3.94,0,0,0,1.72-.46ZM80.87,43c0-1.06-.44-2.12-1.57-2.12A2,2,0,0,0,77.5,43Z"/><path d="M88.91,46.46h-.75v-1h0a2,2,0,0,1-1.91,1.11c-1.68,0-2.52-1.39-2.52-3.2s.72-3.21,2.52-3.21a2.06,2.06,0,0,1,1.91,1.18h0V37.45h.75ZM86.34,46c1.35,0,1.82-1.45,1.82-2.56s-.47-2.56-1.82-2.56-1.81,1.37-1.81,2.56S84.9,46,86.34,46Z"/><path d="M95.79,46.27A5.19,5.19,0,0,1,94,46.6c-2,0-2.79-1.36-2.79-3.2s1-3.21,2.58-3.21c1.73,0,2.44,1.39,2.44,3v.38H92.05a2.08,2.08,0,0,0,2,2.35,3.94,3.94,0,0,0,1.72-.46ZM95.41,43c0-1.06-.43-2.12-1.56-2.12A2,2,0,0,0,92.05,43Z"/><path d="M98.62,41.7a10.66,10.66,0,0,0-.05-1.37h.76v1.18h0a1.83,1.83,0,0,1,1.58-1.32,2.72,2.72,0,0,1,.53.07v.79a2.38,2.38,0,0,0-.56-.07c-1.2,0-1.52,1.35-1.52,2.45v3h-.76Z"/><path d="M107.07,45.48h0a2.15,2.15,0,0,1-1.94,1.12c-1.75,0-2-1.17-2-1.73,0-2,2.18-2.15,3.77-2.15H107v-.31c0-1-.37-1.57-1.39-1.57a3.23,3.23,0,0,0-1.8.5v-.73a4.79,4.79,0,0,1,1.8-.42c1.51,0,2.15.68,2.15,2.28v2.7a8.73,8.73,0,0,0,.06,1.29h-.74ZM107,43.37h-.21c-1.31,0-2.87.14-2.87,1.48,0,.81.57,1.11,1.27,1.11C107,46,107,44.41,107,43.75Z"/><path d="M109.92,45.82,113.61,41h-3.54v-.65h4.42V41l-3.69,4.83h3.69v.65h-4.57Z"/><path d="M117.52,38.7h-.76v-1h.76Zm-.76,1.63h.76v6.13h-.76Z"/><path d="M122.75,40.19c2,0,2.86,1.54,2.86,3.21s-.88,3.2-2.86,3.2-2.86-1.53-2.86-3.2S120.77,40.19,122.75,40.19Zm0,5.77c1.32,0,2-1.15,2-2.56s-.71-2.56-2-2.56-2,1.14-2,2.56S121.43,46,122.75,46Z"/><path d="M128,41.78a14.34,14.34,0,0,0,0-1.45h.73v1.1h0a1.93,1.93,0,0,1,2-1.24c1.51,0,2.09,1,2.09,2.35v3.92H132V42.74c0-1.16-.41-1.9-1.45-1.9-1.38,0-1.81,1.21-1.81,2.23v3.39H128Z"/><path d="M139.69,46.27a5.15,5.15,0,0,1-1.78.33c-2,0-2.78-1.36-2.78-3.2s1-3.21,2.58-3.21c1.73,0,2.44,1.39,2.44,3v.38H136A2.08,2.08,0,0,0,138,46a3.94,3.94,0,0,0,1.72-.46ZM139.32,43c0-1.06-.44-2.12-1.56-2.12A2,2,0,0,0,136,43Z"/><path d="M146.64,45.39a3.35,3.35,0,0,0,1.86.49,1.67,1.67,0,0,0,1.88-1.71c0-1.65-3.84-1.85-3.84-4.05,0-1.35,1.17-2.19,2.65-2.19a5,5,0,0,1,1.65.28l-.14.75a3.46,3.46,0,0,0-1.52-.31c-.87,0-1.81.36-1.81,1.44,0,1.69,3.84,1.7,3.84,4.15,0,1.69-1.45,2.36-2.75,2.36a4.67,4.67,0,0,1-1.9-.36Z"/><path d="M155.86,46.46H155l-2.08-6.13h.83l1.69,5.3h0l1.78-5.3H158Z"/><path d="M160.76,38.7H160v-1h.76ZM160,40.33h.76v6.13H160Z"/><path d="M163,45.82,166.73,41h-3.54v-.65h4.42V41l-3.69,4.83h3.69v.65H163Z"/><path d="M169.31,45.82,173,41h-3.54v-.65h4.42V41l-3.69,4.83h3.69v.65h-4.57Z"/><path d="M180.25,46.27a5.09,5.09,0,0,1-1.77.33c-2,0-2.79-1.36-2.79-3.2s1-3.21,2.58-3.21c1.73,0,2.44,1.39,2.44,3v.38h-4.19c0,1.3.69,2.35,2,2.35a3.89,3.89,0,0,0,1.71-.46ZM179.88,43c0-1.06-.43-2.12-1.56-2.12a2,2,0,0,0-1.8,2.12Z"/><path d="M183.09,41.7a10.66,10.66,0,0,0-.05-1.37h.76v1.18h0a1.82,1.82,0,0,1,1.58-1.32,2.52,2.52,0,0,1,.52.07v.79a2.29,2.29,0,0,0-.55-.07c-1.2,0-1.52,1.35-1.52,2.45v3h-.76Z"/><path d="M191.53,45.48h0a2.16,2.16,0,0,1-1.95,1.12c-1.74,0-2-1.17-2-1.73,0-2,2.18-2.15,3.77-2.15h.14v-.31c0-1-.37-1.57-1.39-1.57a3.23,3.23,0,0,0-1.8.5v-.73a4.79,4.79,0,0,1,1.8-.42c1.51,0,2.15.68,2.15,2.28v2.7a8.73,8.73,0,0,0,.06,1.29h-.75Zm-.07-2.11h-.21c-1.31,0-2.88.14-2.88,1.48,0,.81.58,1.11,1.28,1.11,1.78,0,1.81-1.55,1.81-2.21Z"/><path d="M53.88,55.59A4.32,4.32,0,0,0,52,55.23a3.3,3.3,0,0,0-3.4,3.62c0,2.11,1.19,3.61,3.4,3.61a4.15,4.15,0,0,0,1.88-.36l0,.72a4.44,4.44,0,0,1-1.92.36,4,4,0,0,1-4.23-4.33A4,4,0,0,1,52,54.51a5.37,5.37,0,0,1,1.92.31Z"/><path d="M59.38,56.77c2,0,2.86,1.53,2.86,3.2s-.88,3.21-2.86,3.21S56.52,61.64,56.52,60,57.4,56.77,59.38,56.77Zm0,5.76c1.32,0,2-1.14,2-2.56s-.71-2.55-2-2.55-2,1.14-2,2.55S58.06,62.53,59.38,62.53Z"/><path d="M64.6,58.35a14.05,14.05,0,0,0,0-1.44h.74V58h0a1.94,1.94,0,0,1,2-1.23c1.52,0,2.09,1,2.09,2.35V63h-.75V59.31c0-1.15-.41-1.89-1.46-1.89-1.38,0-1.81,1.21-1.81,2.23V63H64.6Z"/><path d="M72.72,57.56H71.49v-.65h1.23v-.44c0-1.29,0-2.59,1.62-2.59a1.81,1.81,0,0,1,.71.12l0,.66a1.44,1.44,0,0,0-.61-.13c-1,0-.92,1.12-.92,1.85v.53h1.38v.65H73.48V63h-.76Z"/><path d="M81.24,62.85a5.15,5.15,0,0,1-1.78.33c-2,0-2.79-1.37-2.79-3.21s1-3.2,2.59-3.2c1.73,0,2.44,1.39,2.44,3v.38H77.5a2.07,2.07,0,0,0,2,2.34,4.08,4.08,0,0,0,1.72-.45Zm-.37-3.31c0-1.07-.44-2.12-1.57-2.12a2,2,0,0,0-1.8,2.12Z"/><path d="M88.91,63h-.75v-1h0a1.94,1.94,0,0,1-1.91,1.12c-1.68,0-2.52-1.39-2.52-3.21s.72-3.2,2.52-3.2a2.05,2.05,0,0,1,1.91,1.17h0V54h.75Zm-2.57-.51c1.35,0,1.82-1.44,1.82-2.56s-.47-2.55-1.82-2.55S84.53,58.79,84.53,60,84.9,62.53,86.34,62.53Z"/><path d="M95.79,62.85a5.19,5.19,0,0,1-1.78.33c-2,0-2.79-1.37-2.79-3.21s1-3.2,2.58-3.2c1.73,0,2.44,1.39,2.44,3v.38H92.05a2.07,2.07,0,0,0,2,2.34,4.08,4.08,0,0,0,1.72-.45Zm-.38-3.31c0-1.07-.43-2.12-1.56-2.12a2,2,0,0,0-1.8,2.12Z"/><path d="M98.62,58.28a10.66,10.66,0,0,0-.05-1.37h.76v1.18h0a1.82,1.82,0,0,1,1.58-1.32,2.13,2.13,0,0,1,.53.07v.79a2,2,0,0,0-.56-.07c-1.2,0-1.52,1.34-1.52,2.45v3h-.76Z"/><path d="M107.07,62.05h0a2.15,2.15,0,0,1-1.94,1.13c-1.75,0-2-1.18-2-1.73,0-2.05,2.18-2.15,3.77-2.15H107V59c0-1.05-.37-1.57-1.39-1.57a3.23,3.23,0,0,0-1.8.5v-.73a4.79,4.79,0,0,1,1.8-.42c1.51,0,2.15.68,2.15,2.28v2.7a8.8,8.8,0,0,0,.06,1.29h-.74ZM107,60h-.21c-1.31,0-2.87.13-2.87,1.48,0,.8.57,1.1,1.27,1.1C107,62.53,107,61,107,60.32Z"/><path d="M109.92,62.4l3.69-4.84h-3.54v-.65h4.42v.65l-3.69,4.83h3.69V63h-4.57Z"/><path d="M117.52,55.28h-.76v-1h.76Zm-.76,1.63h.76V63h-.76Z"/><path d="M125.14,61.6a14.25,14.25,0,0,0,0,1.44h-.73v-1.1h0a1.92,1.92,0,0,1-2,1.24c-1.51,0-2.09-1-2.09-2.35V56.91h.76v3.73c0,1.15.41,1.89,1.45,1.89,1.38,0,1.82-1.21,1.82-2.23V56.91h.75Z"/><path d="M128,58.35a14.05,14.05,0,0,0,0-1.44h.73V58h0a1.94,1.94,0,0,1,2-1.23c1.51,0,2.09,1,2.09,2.35V63H132V59.31c0-1.15-.41-1.89-1.45-1.89-1.38,0-1.81,1.21-1.81,2.23V63H128Z"/><path d="M139.39,62.15a3.6,3.6,0,0,0,1.6.38c.72,0,1.36-.39,1.36-1.09,0-1.45-2.95-1.23-2.95-3,0-1.22,1-1.67,2-1.67a4.91,4.91,0,0,1,1.51.27l-.07.66a3.6,3.6,0,0,0-1.36-.28c-.78,0-1.32.24-1.32,1,0,1.14,3,1,3,3,0,1.3-1.21,1.74-2.13,1.74a4.54,4.54,0,0,1-1.72-.29Z"/><path d="M147.59,63h-.89l-2.07-6.13h.83l1.69,5.3h0l1.78-5.3h.79Z"/><path d="M152.49,55.28h-.75v-1h.75Zm-.75,1.63h.75V63h-.75Z"/><path d="M154.78,62.4l3.68-4.84h-3.54v-.65h4.42v.65l-3.69,4.83h3.69V63h-4.56Z"/><path d="M161.61,58.28a10.66,10.66,0,0,0-.05-1.37h.76v1.18h0a1.82,1.82,0,0,1,1.58-1.32,2.13,2.13,0,0,1,.53.07v.79a2,2,0,0,0-.56-.07c-1.2,0-1.52,1.34-1.52,2.45v3h-.76Z"/><path d="M170.06,62.05h0a2.13,2.13,0,0,1-1.94,1.13c-1.75,0-2-1.18-2-1.73,0-2.05,2.18-2.15,3.77-2.15H170V59c0-1.05-.37-1.57-1.39-1.57a3.23,3.23,0,0,0-1.8.5v-.73a4.79,4.79,0,0,1,1.8-.42c1.51,0,2.15.68,2.15,2.28v2.7A8.8,8.8,0,0,0,170.8,63h-.74ZM170,60h-.21c-1.31,0-2.87.13-2.87,1.48,0,.8.57,1.1,1.27,1.1C170,62.53,170,61,170,60.32Z"/><path class="b" d="M34,4.55s-6.35-2.78-17-2.78h0c-10.64,0-17,2.78-17,2.78S-.51,16.87,1.9,23.84A25.75,25.75,0,0,0,17.05,39.53h0A25.75,25.75,0,0,0,32.2,23.84C34.61,16.87,34,4.55,34,4.55"/><polygon class="c" points="28.34 15.17 28.34 21.96 20.42 21.96 20.42 29.88 13.63 29.88 13.63 21.96 5.72 21.96 5.72 15.17 13.63 15.17 13.63 7.25 20.42 7.25 20.42 15.17 28.34 15.17"/><line class="d" x1="281.5" x2="281.5" y2="63.19"/><rect class="e" y="1.77" width="547.29" height="61.41"/></svg>
