<svg xmlns="http://www.w3.org/2000/svg" viewBox="0 0 344.97 42.3"><defs><style>.a{fill:#dc0018;}</style></defs><path class="a" d="M31.64 41.63H40V2.89H26.87L20.1 27.81H20L13.71 2.89H0v38.74h8.33V11h.11l8.38 30.65h6L31.53 11h.11v30.63zm21.1-16.93c0-1.56 0-7.11 4.5-7.11 3.61 0 4.55 3.44 4.55 7.11zm17 2.66c0-15.1-9.94-15.1-12.55-15.1-8.27 0-12.82 7-12.82 14.82 0 8.83 4.5 15 14.66 15a27.31 27.31 0 0 0 9.16-1.66l-.17-6.61a18 18 0 0 1-8.16 2.28c-4.94 0-7.16-3.17-7.16-6.61h17v-2.11zm2.33-8.49h4.78v14.66c0 6.33 3.94 8.55 8.49 8.55a20.89 20.89 0 0 0 6.11-.78v-6.16a6.51 6.51 0 0 1-2.89.61c-1.66 0-2.94-.78-2.94-3.61V18.87h5.66v-6.16h-5.62V4.05l-8.55 2.72v5.94h-5v6.16zm30.13 5.83c0-1.56 0-7.11 4.5-7.11 3.61 0 4.55 3.44 4.55 7.11zm17 2.66c0-15.1-9.94-15.1-12.55-15.1-8.27 0-12.82 7-12.82 14.82 0 8.83 4.5 15 14.66 15a27.3 27.3 0 0 0 9.16-1.66l-.17-6.61a18 18 0 0 1-8.16 2.28c-4.94 0-7.16-3.17-7.16-6.61h17v-2.11zm2.78-.28c0 8.77 4.72 15 13.6 15s13.6-6.22 13.6-15-4.72-14.82-13.6-14.82S122 18.43 122 27.09zm9.1 0c0-5.66 1.44-8.83 4.5-8.83s4.5 3.16 4.5 8.83-1.44 9-4.5 9-4.5-3.33-4.5-9zM175 3.55a37.85 37.85 0 0 0-9.11-1.33c-13 0-13.44 9.88-13.44 11 0 13.82 15.27 10.16 15.27 17.65 0 3.16-2.78 4.61-5.66 4.61-3.39 0-5.77-1.34-8.49-2.39l-.5 7.55a37.24 37.24 0 0 0 10.44 1.61c7.72 0 13.54-4.44 13.54-11.77 0-13.77-15.27-10.49-15.27-17.54 0-2.89 2.22-4.22 5.16-4.22a18.47 18.47 0 0 1 7.66 2l.4-7.17zm11.7 38.08H197l9.05-28.92h-8.55l-5.27 20.6h-.11l-5.33-20.6h-9.1l9 28.92zm23.2 0h8.77V12.71h-8.77v28.92zm0-33.86h8.77V0h-8.77v7.77zm14.49 11.49h10.71l-11 15.16v7.22h20.65v-6.56h-11.1l10.83-15.21v-7.16h-20v6.55zm24.2 0h10.71l-11 15.16v7.22h20.65v-6.56h-11.1l10.82-15.21v-7.16h-20v6.55zm31.59 5.44c0-1.56 0-7.11 4.5-7.11 3.61 0 4.55 3.44 4.55 7.11zm17 2.66c0-15.1-9.94-15.1-12.55-15.1-8.27 0-12.82 7-12.82 14.82 0 8.83 4.5 15 14.66 15a27.31 27.31 0 0 0 9.16-1.66l-.17-6.61a18 18 0 0 1-8.16 2.28c-4.94 0-7.16-3.17-7.16-6.61h17v-2.11zm4.33 14.27h8.77V28.7c0-4.22.61-8.66 5.72-8.66a11.56 11.56 0 0 1 2.94.33v-8.1h-1.28c-5.05 0-6.27 2.56-8 5.66h-.11c-.05-1.72-.17-3.5-.22-5.22h-8a55.89 55.89 0 0 1 .22 6.05v22.87zm21.76-21c3.44-2.06 5.83-2.56 8.05-2.56 1.28 0 5.38 0 5.38 5.55h-2.66c-3.05 0-14.32.06-14.32 9.72 0 5.27 3.55 8.77 8.94 8.77 4.16 0 7.55-2.66 7.94-4.44h.11l.22 4h8c-.17-1.94-.22-3.89-.22-8.16V22.93c0-6.44-2.33-10.66-12.49-10.66a34.36 34.36 0 0 0-9.33 1.83l.39 6.5zm13.43 8.77c0 7.05-4.44 7.16-5.22 7.16a3.41 3.41 0 0 1-3.78-3.78c0-4.83 5.5-5.05 9-5.05v1.67z"/></svg>