<svg xmlns="http://www.w3.org/2000/svg" viewBox="0 0 283.85 42.34"><defs><style>.a{fill:#dc0018;}</style></defs><path class="a" d="M31.67 41.67H40V2.89H26.89l-6.78 24.95H20L13.72 2.89H0v38.78h8.33V11h.11l8.39 30.67h6L31.56 11h.11v30.67zm21.11-16.95c0-1.55 0-7.11 4.5-7.11 3.61 0 4.56 3.44 4.56 7.11zm17.06 2.67c0-15.11-9.95-15.11-12.56-15.11-8.28 0-12.83 7.06-12.83 14.84 0 8.83 4.5 15 14.67 15a27.25 27.25 0 0 0 9.17-1.67l-.17-6.61a18 18 0 0 1-8.17 2.28c-4.95 0-7.17-3.17-7.17-6.61h17.06v-2.12zm2.33-8.5H77v14.67c0 6.33 3.94 8.56 8.5 8.56a20.89 20.89 0 0 0 6.11-.78v-6.17a6.52 6.52 0 0 1-2.89.61c-1.67 0-2.94-.78-2.94-3.61V18.89h5.62v-6.17h-5.67V4.06l-8.56 2.72v5.94h-5v6.17zm30.11 5.83c0-1.55 0-7.11 4.5-7.11 3.61 0 4.56 3.44 4.56 7.11zm17.05 2.67c0-15.11-9.94-15.11-12.56-15.11-8.26 0-12.77 7.06-12.77 14.83 0 8.83 4.5 15 14.67 15a27.24 27.24 0 0 0 9.17-1.67l-.17-6.61a18 18 0 0 1-8.17 2.28c-4.94 0-7.17-3.17-7.17-6.61h17.05v-2.11zm2.78-.28c0 8.78 4.72 15 13.61 15s13.61-6.22 13.61-15-4.72-14.84-13.61-14.84-13.61 6.17-13.61 14.84zm9.11 0c0-5.67 1.44-8.84 4.5-8.84s4.5 3.17 4.5 8.84-1.44 9-4.5 9-4.5-3.34-4.5-9zm43.96-23.55a38.11 38.11 0 0 0-9.11-1.33c-13 0-13.45 9.89-13.45 11.06 0 13.84 15.28 10.17 15.28 17.67 0 3.17-2.78 4.61-5.67 4.61-3.39 0-5.78-1.33-8.5-2.39l-.5 7.55a37.14 37.14 0 0 0 10.44 1.61c7.72 0 13.56-4.45 13.56-11.78C177.23 16.78 162 20.06 162 13c0-2.89 2.22-4.22 5.17-4.22a18.49 18.49 0 0 1 7.67 2l.39-7.22zm2.72 9.17l7.78 28.95h9.56l4.44-21.17h.11l4.72 21.17h9.33l7.72-28.95h-8.33l-4.06 20.61h-.11l-3.94-20.61h-10L191 33.34h-.11l-4.22-20.61zm47.56 28.95h8.78V12.72h-8.78v28.95zm0-33.89h8.78V0h-8.78v7.78zm32.89 5.67a26.6 26.6 0 0 0-8.06-1.17c-8.61 0-10.83 5.56-10.83 8.67 0 5.17 3 7.61 6.06 8.89 3.78 1.56 6.06 2.11 6.06 3.39s-.28 2.72-4.39 2.72a14.42 14.42 0 0 1-7.22-2l-.22 6.78a30 30 0 0 0 9.5 1.39c5.83 0 10.67-2.5 10.67-8.94 0-5.45-3.05-7.34-6.06-8.45-4.78-1.78-6.06-2.39-6.06-4.17 0-1 1-2.11 3.28-2.11a18.15 18.15 0 0 1 7.05 1.54l.22-6.56zm23.95 0a26.59 26.59 0 0 0-8.05-1.17c-8.61 0-10.83 5.56-10.83 8.67 0 5.17 3 7.61 6.05 8.89 3.78 1.56 6.06 2.11 6.06 3.39s-.28 2.72-4.39 2.72a14.44 14.44 0 0 1-7.22-2l-.22 6.78a30 30 0 0 0 9.5 1.39c5.83 0 10.67-2.5 10.67-8.94 0-5.45-3.06-7.34-6.06-8.45-4.78-1.78-6.06-2.39-6.06-4.17 0-1 1-2.11 3.28-2.11a18.14 18.14 0 0 1 7.04 1.54l.22-6.56z"/></svg>