<svg xmlns="http://www.w3.org/2000/svg" viewBox="0 0 298.52 42.31"><defs><style>.a{fill:#000;}</style></defs><path class="a" d="M31.65 41.64H40V2.89H26.87L20.1 27.82H20L13.71 2.89H0v38.75h8.33V11h.11l8.39 30.65h6L31.54 11h.11v30.64zm21-32.2h5.11l5.55-8.11h-7.62l-3 8.11zm.06 15.27c0-1.55 0-7.11 4.5-7.11 3.61 0 4.55 3.44 4.55 7.11zm17 2.66c0-15.1-9.94-15.1-12.55-15.1-8.27 0-12.82 7.05-12.82 14.82 0 8.83 4.5 15 14.66 15a27.25 27.25 0 0 0 9.16-1.67l-.17-6.61a18 18 0 0 1-8.16 2.28c-4.94 0-7.16-3.17-7.16-6.61h17v-2.11zm2.33-8.49h4.78v14.65c0 6.33 3.94 8.55 8.49 8.55a20.94 20.94 0 0 0 6.11-.78v-6.16a6.53 6.53 0 0 1-2.89.61c-1.67 0-2.94-.78-2.94-3.61V18.88h5.66v-6.17h-5.58V4.05l-8.56 2.72v5.94h-5v6.16zm30-9.44h5.11l5.55-8.11h-7.66l-3 8.11zm.06 15.27c0-1.55 0-7.11 4.5-7.11 3.61 0 4.55 3.44 4.55 7.11zm17 2.66c0-15.1-9.94-15.1-12.55-15.1-8.27 0-12.82 7.05-12.82 14.82 0 8.83 4.5 15 14.66 15a27.25 27.25 0 0 0 9.16-1.67l-.17-6.61a18 18 0 0 1-8.16 2.28c-4.94 0-7.16-3.17-7.16-6.61h17v-2.11zm3.33-.28c0 8.77 4.72 15 13.6 15s13.6-6.22 13.6-15-4.72-14.82-13.6-14.82-13.6 6.16-13.6 14.82zm9.11 0c0-5.66 1.44-8.83 4.5-8.83s4.5 3.17 4.5 8.83-1.44 9-4.5 9-4.5-3.33-4.5-9zM175.6 3.55a38 38 0 0 0-9.11-1.33c-13 0-13.44 9.88-13.44 11 0 13.82 15.27 10.16 15.27 17.65 0 3.17-2.78 4.61-5.66 4.61-3.39 0-5.77-1.33-8.49-2.39l-.5 7.55a37.23 37.23 0 0 0 10.44 1.61c7.72 0 13.54-4.44 13.54-11.77 0-13.77-15.27-10.49-15.27-17.54 0-2.89 2.22-4.22 5.16-4.22a18.46 18.46 0 0 1 7.66 2l.39-7.22zm30.26 9.16h-8.77v16.21c0 3.72-1 6.16-3.83 6.16-1.78 0-3.39-.94-3.39-4.55V12.71h-8.77v18.94c0 5.77 2.11 10.44 8.49 10.44 4.61 0 6.83-2.11 8.16-5.27h.11c0 1.94.11 3.55.22 4.83h8a55.29 55.29 0 0 1-.22-6.05V12.71zm6.66 28.92h8.77V12.71h-8.77v28.93zm0-33.87h8.77V0h-8.77v7.77zm32.31 5.66a26.58 26.58 0 0 0-8-1.16c-8.6 0-10.83 5.55-10.83 8.66 0 5.16 3 7.61 6.05 8.88 3.78 1.55 6.05 2.11 6.05 3.38s-.28 2.72-4.39 2.72a14.43 14.43 0 0 1-7.22-2l-.22 6.77a30 30 0 0 0 9.49 1.39c5.83 0 10.66-2.5 10.66-8.94 0-5.44-3.05-7.33-6.05-8.44-4.77-1.78-6-2.39-6-4.16 0-1 1-2.11 3.27-2.11a18.1 18.1 0 0 1 6.97 1.59l.22-6.55zm23.93 0a26.58 26.58 0 0 0-8.05-1.16c-8.61 0-10.83 5.55-10.83 8.66 0 5.16 3 7.61 6.05 8.88 3.78 1.55 6.05 2.11 6.05 3.38s-.28 2.72-4.39 2.72a14.42 14.42 0 0 1-7.22-2l-.22 6.77a30 30 0 0 0 9.49 1.39c5.83 0 10.66-2.5 10.66-8.94 0-5.44-3.05-7.33-6.05-8.44-4.78-1.78-6.05-2.39-6.05-4.16 0-1 1-2.11 3.28-2.11a18.1 18.1 0 0 1 7 1.55l.22-6.55zm12.71 11.27c0-1.55 0-7.11 4.5-7.11 3.61 0 4.55 3.44 4.55 7.11zm17 2.66c0-15.1-9.94-15.1-12.55-15.1-8.27 0-12.83 7.05-12.83 14.82 0 8.83 4.5 15 14.66 15a27.23 27.23 0 0 0 9.25-1.65l-.17-6.61a18 18 0 0 1-8.16 2.28c-4.94 0-7.16-3.17-7.16-6.61h17v-2.11z"/></svg>
