<svg xmlns="http://www.w3.org/2000/svg" viewBox="0 0 346.07 42.32"><defs><style>.a{fill:#000;}</style></defs><path class="a" d="M325.74 19.28h10.72l-11.05 15.16v7.22h20.66V35.1H335l10.83-15.22v-7.16h-20zm-14.22-11.5h8.77V0h-8.77zm0 33.88h8.77V12.72h-8.77zm-6-14.27c0-15.11-9.94-15.11-12.55-15.11-8.27 0-12.83 7.05-12.83 14.83 0 8.83 4.5 15 14.66 15a27.28 27.28 0 0 0 9.2-1.67l-.17-6.61a18 18 0 0 1-8.16 2.28c-4.94 0-7.17-3.17-7.17-6.61h17.05zm-17.05-2.67c0-1.55 0-7.11 4.5-7.11 3.61 0 4.56 3.44 4.56 7.11zm-53.82-12l7.77 28.94H252l4.44-21.16h.11l4.72 21.16h9.33l7.72-28.94H270l-4.05 20.61h-.11l-3.94-20.61h-10l-4.11 20.61h-.11l-4.22-20.61zm-27.54 28.94h8.78V25.44c0-3.72 1-6.16 3.83-6.16 1.78 0 3.39.94 3.39 4.55v17.83h8.77V22.72c0-5.77-2.11-10.44-8.5-10.44-3.17 0-6.39 1.5-7.39 4.72h-.11V0h-8.78zm-5.05-7.39a14.37 14.37 0 0 1-5.11 1.28c-3.33 0-7.11-1.94-7.11-8.06 0-1.11 0-8.44 6.66-8.44a14.32 14.32 0 0 1 5.11 1.22l.45-6.61c-2.55-.67-4.11-1.39-7-1.39-9.22 0-14.33 6.33-14.33 15.22 0 5.28 2.5 14.61 13.66 14.61a31.2 31.2 0 0 0 7.94-1.22zM176.4 3.56a38 38 0 0 0-9.11-1.33c-13 0-13.44 9.88-13.44 11.05 0 13.83 15.28 10.16 15.28 17.66 0 3.17-2.78 4.61-5.67 4.61-3.39 0-5.78-1.33-8.5-2.39l-.5 7.55a37.28 37.28 0 0 0 10.44 1.61c7.72 0 13.55-4.44 13.55-11.77 0-13.78-15.28-10.5-15.28-17.55 0-2.89 2.22-4.22 5.17-4.22a18.47 18.47 0 0 1 7.67 2zm-43.94 23.55c0-5.66 1.44-8.83 4.5-8.83s4.5 3.17 4.5 8.83-1.44 9-4.5 9-4.5-3.33-4.5-9m-9.11 0c0 8.77 4.72 15 13.61 15s13.61-6.22 13.61-15-4.72-14.83-13.57-14.83-13.61 6.17-13.61 14.83m-2.77.28c0-15.11-9.94-15.11-12.55-15.11-8.28 0-12.83 7.05-12.83 14.83 0 8.83 4.5 15 14.66 15a27.27 27.27 0 0 0 9.1-1.67l-.17-6.61a18 18 0 0 1-8.16 2.28c-4.94 0-7.16-3.17-7.16-6.61h17zm-17-2.67c0-1.55 0-7.11 4.5-7.11 3.61 0 4.56 3.44 4.56 7.11zm-31.03-5.84h4.78v14.67c0 6.33 3.94 8.55 8.5 8.55a21 21 0 0 0 6.13-.78v-6.16a6.51 6.51 0 0 1-2.89.61c-1.67 0-2.95-.78-2.95-3.61V18.88h5.67v-6.16h-5.69V4.05l-8.55 2.73v5.94h-5zm-2.33 8.5c0-15.11-9.94-15.11-12.55-15.11-8.28 0-12.83 7.05-12.83 14.83 0 8.83 4.5 15 14.66 15a27.27 27.27 0 0 0 9.16-1.66l-.17-6.61a18 18 0 0 1-8.16 2.28c-4.95 0-7.17-3.17-7.17-6.61h17.06zm-17.05-2.66c0-1.55 0-7.11 4.5-7.11 3.61 0 4.55 3.44 4.55 7.11zM31.66 41.66H40V2.89H26.88l-6.77 24.94H20L13.72 2.89H0v38.77h8.33V11h.11l8.39 30.66h6L31.55 11h.11z"/></svg>
