<svg xmlns="http://www.w3.org/2000/svg" xmlns:xlink="http://www.w3.org/1999/xlink" viewBox="0 0 888.99 289.1">
  <defs>
    <style>
      .a{fill:#e5e5e5;}.b,.j,.k,.r,.s{fill:none;}.c{fill:url(#a);}.d{fill:#bfbfbf;}.e{fill:url(#b);}.f{fill:url(#c);}.g{fill:url(#d);}.h{fill:url(#e);}.i{fill:gray;opacity:0.1;}.j{stroke:#bfbfbf;}.j,.k{stroke-linecap:round;stroke-width:2px;}.j,.k,.r{stroke-miterlimit:10;}.k{stroke:#eba550;}.l{fill:#fbdfc4;}.m{fill:#7d6e5f;}.n{fill:#87a082;}.o{clip-path:url(#f);}.p{fill:#dc0018;}.q{fill:#737373;}.r,.s{stroke:#e5e5e5;stroke-dasharray:8 6;}.r{stroke-width:5px;}.s{stroke-linejoin:round;stroke-width:3px;}.t{fill:#fff;}
    </style>
    <linearGradient id="a" x1="658.62" y1="37.12" x2="711.94" y2="37.12" gradientUnits="userSpaceOnUse">
      <stop offset="0" stop-color="#b40017"/>
      <stop offset=".94" stop-color="#dc0018"/>
    </linearGradient>
    <linearGradient id="b" x1="751.23" y1="37.25" x2="807.03" y2="37.25" xlink:href="#a"/>
    <linearGradient id="c" x1="810.38" y1="172.26" x2="810.38" y2="145.11" xlink:href="#a"/>
    <linearGradient id="d" x1="810.37" y1="132.99" x2="810.37" y2="175.98" gradientUnits="userSpaceOnUse">
      <stop offset="0" stop-color="#bfbfbf"/>
      <stop offset=".33" stop-color="#bbb"/>
      <stop offset=".65" stop-color="#b0b0b0"/>
      <stop offset=".96" stop-color="#9c9c9c"/>
      <stop offset="1" stop-color="#999"/>
    </linearGradient>
    <linearGradient id="e" x1="11.66" y1="36.53" x2="126.32" y2="36.53" xlink:href="#a"/>
    <clipPath id="f">
      <path class="a" d="M34 68.3h-.26a8.18 8.18 0 1 0 0 16.34 9 9 0 0 0 2.94-.5 10.37 10.37 0 0 0 12.82-1.88 7.27 7.27 0 1 0 .59-13.6A10.39 10.39 0 0 0 34 68.3"/>
    </clipPath>
  </defs>
  <path class="a" d="M727.02 77.04h12.24v192.09h-12.24z"/>
  <path class="c" d="M676.13 39H681v7.08c4 0 7.81-4.08 8.56-7.08h4.88c.74 3 4.34 7.17 8.68 7.17a8.87 8.87 0 0 0 8.83-8.87 9.14 9.14 0 0 0-8.83-9.19 8.63 8.63 0 0 0-8.69 6.89h-4.88c-.74-4-4.56-6.58-8.56-6.58V35h-4.86a8.65 8.65 0 0 0-8.68-6.92 9 9 0 0 0 0 18c4.34 0 7.94-4.08 8.68-7.08z"/>
  <rect class="d" x="677.03" y="47.84" width="15.66" height="5.53" rx="2.15" ry="2.15"/>
  <path class="d" d="M781.24 42.32h-2a2.67 2.67 0 0 0-2.7 2.68v14.91a2.67 2.67 0 0 1-2.67 2.67h-83.11a2.67 2.67 0 0 1-2.67-2.67v-2a2.67 2.67 0 0 0-2.67-2.67h-1.1a2.67 2.67 0 0 0-2.67 2.67v2a2.67 2.67 0 0 1-2.65 2.68h-6.63a2.67 2.67 0 0 0-2.67 2.67v3.87a2.67 2.67 0 0 0 2.67 2.67h121.77a2.67 2.67 0 0 0 2.67-2.67v-3.87a2.67 2.67 0 0 0-2.67-2.67h-7.55a2.67 2.67 0 0 1-2.67-2.67V45a2.67 2.67 0 0 0-2.68-2.68z"/>
  <path class="e" d="M807.03 37.25l-8.04-6.64V35h-34v-2.3l-13.76-6.99 4.05 11.37-3.97 11.71 13.68-7V39h34v4.89l8.04-6.64"/>
  <path class="f" d="M812.62 147.35a2.25 2.25 0 0 0-4.49 0v14.25a5.57 5.57 0 1 0 4.49 0z"/>
  <path class="g" d="M816.49 159.37V139.1a6.11 6.11 0 0 0-12.23 0v20.27a9.42 9.42 0 0 0 .69 14.89 9.43 9.43 0 0 0 14.86-7.71 9.49 9.49 0 0 0-3.32-7.18zm-2 1.37a7.09 7.09 0 0 1 0 11.61 7.09 7.09 0 0 1-8.16 0 7.09 7.09 0 0 1 0-11.61l.3-.21V139.1a3.78 3.78 0 0 1 6.46-2.67 3.74 3.74 0 0 1 1.11 2.67v21.43z"/>
  <path class="a" d="M803.62 191.56h12.24v77.57h-12.24z"/>
  <path class="d" d="M760 125.34v57.86a3.78 3.78 0 0 0 3.78 3.78h92.82a3.78 3.78 0 0 0 3.78-3.78v-57.86a3.78 3.78 0 0 0-3.78-3.78h-92.87a3.78 3.78 0 0 0-3.73 3.78zm90.2 55.19h-80a3.78 3.78 0 0 1-3.78-3.78v-45.89a3.78 3.78 0 0 1 3.78-3.78h80a3.78 3.78 0 0 1 3.78 3.78v45.88a3.78 3.78 0 0 1-3.83 3.78zM132.25 12.37V236H6.47V12.37h125.78m0-6.47H6.47A6.47 6.47 0 0 0 0 12.37V236a6.47 6.47 0 0 0 6.47 6.47h125.78a6.47 6.47 0 0 0 6.47-6.47V12.37a6.47 6.47 0 0 0-6.47-6.47z"/>
  <path class="h" d="M11.66 18.78h114.67v35.5H11.66z"/>
  <path class="a" d="M72.43 106.29h5.61v35.5h-5.61zM11.66 106.29h5.61v35.5h-5.61zM72.43 62.53h5.61v35.5h-5.61zM11.66 62.53h5.61v35.5h-5.61zM11.66 150.04h114.67v35.5H11.66zM11.66 193.79h114.67v35.5H11.66z"/>
  <path class="i" d="M124.83 176.07C86.16 187.83 44.44 128 16 181h109z"/>
  <path class="j" d="M16 181.35c28.45-53.54 70 6.83 108.67-4.93"/>
  <path class="k" d="M16 224.35c23.47-10 33.35-1.6 56.44-15.68s47.05-1.76 52.23 10.75"/>
  <path class="i" d="M124.83 219.12c-5.18-12.51-29.22-24.86-52.31-10.78S39.46 214 16 224h109v-5"/>
  <path class="j" d="M16 224.35c23.47-10 33.35-1.6 56.44-15.68s47.05-1.76 52.23 10.75"/>
  <path class="l" d="M187.14 195.52a3.87 3.87 0 0 0-2.05.62c-1.38-20.21-16.42-36.14-34.78-36.14s-33.58 15.87-35 36a3.83 3.83 0 0 0-1.9-.53c-3.17 0-5.74 1-5.74 6.17s6.89 15.17 10.06 15.17a1.51 1.51 0 0 0 1-.34c4.66 10.74 13.52 18.69 24.29 21.09V241h14v-3.37c10.88-2.37 20-10.41 24.68-21.27a1.48 1.48 0 0 0 1.15.5c3.17 0 10.06-10 10.06-15.17s-2.59-6.17-5.77-6.17z"/>
  <path class="m" d="M186.33 189.12c0 19.89-15.55 45.23-36 45.23S114.2 209 114.2 189.12s14.95-31.23 35.42-31.23 36.71 11.35 36.71 31.23z"/>
  <path class="n" d="M185.21 266.48v22.62h-70.89s-.29-13-.29-22.62c0-12.49 15.93-22.62 35.59-22.62s35.59 10.14 35.59 22.62z"/>
  <path class="a" d="M34 68.3h-.26a8.18 8.18 0 1 0 0 16.34 9 9 0 0 0 2.94-.5 10.37 10.37 0 0 0 12.82-1.88 7.27 7.27 0 1 0 .59-13.6A10.39 10.39 0 0 0 34 68.3"/>
  <path class="o a" d="M25.13 64.65h34.45v20.89H25.13z"/>
  <path class="a" d="M32.3 92.24a2.33 2.33 0 0 1-2.3-2.32c0-1.28 1.25-2.76 2.35-4.18 1 1.46 2.35 2.89 2.35 4.18a2.33 2.33 0 0 1-2.35 2.32m21.48-.82a2.36 2.36 0 0 1-2.36-2.37c0-1.3 1.26-2.81 2.36-4.26 1 1.49 2.36 3 2.36 4.26a2.36 2.36 0 0 1-2.36 2.37m-11.23 4.5a3 3 0 0 1-3-3c0-1.65 1.58-3.54 3-5.37 1.32 1.88 3 3.72 3 5.37a3 3 0 0 1-3 3M101.64 62.11c-5.86 7.67-12.49 15.62-12.49 22.54a12.49 12.49 0 1 0 25 0c-.02-6.92-6.97-14.65-12.51-22.54zm-4.82 14.14c1.09 1.53 2.45 3 2.45 4.37a2.45 2.45 0 0 1-4.9 0c0-1.35 1.3-2.89 2.45-4.37zM96 91l-1.12-1.12 12.43-12.43 1.12 1.12zm10.47 1.21a2.44 2.44 0 0 1-2.47-2.42c0-1.34 1.3-2.88 2.45-4.37 1.09 1.53 2.45 3 2.45 4.37a2.44 2.44 0 0 1-2.44 2.43zM42.43 112a17.13 17.13 0 0 0-17.2 17.2 16.91 16.91 0 0 0 1 5.74l16.17-4.38L58.73 135a16.91 16.91 0 0 0 1-5.74A17.32 17.32 0 0 0 42.43 112zm9.43 12.23l3.7-1.15a.6.6 0 1 1 .39 1.15l-3.7 1.15a.62.62 0 0 1-.77-.38c-.01-.36.12-.74.37-.74zm-.39 6.77a.57.57 0 0 1 .77-.38l3.7 1.15c.38 0 .51.38.38.77a.57.57 0 0 1-.77.38l-3.7-1.15a.57.57 0 0 1-.38-.77zm-3.57-11.71l2.29-3.06a.63.63 0 0 1 .89-.13.79.79 0 0 1 .13.89l-2.29 3.06a.64.64 0 1 1-1-.77zm-6.12-5.36a.64.64 0 1 1 1.28 0v3.82a.64.64 0 0 1-1.28 0zm-8 2.17a.63.63 0 0 1 .89.13l2.29 3.06a.6.6 0 0 1-.13.89.63.63 0 0 1-.89-.13L33.63 117a.63.63 0 0 1 .13-.89zm-5.22 7.39a.57.57 0 0 1 .77-.38l3.7 1.15c.25 0 .38.38.38.77a.56.56 0 0 1-.77.38l-3.7-1.15a.57.57 0 0 1-.4-.76zm4.84 7.39c0 .39-.12.77-.38.77l-3.7 1.15a.6.6 0 1 1-.39-1.15l3.7-1.15a.62.62 0 0 1 .74.39z"/>
  <path class="d" d="M43.77 127.32l3.09-3.68a1.49 1.49 0 0 0 1.54-.47 16.17 16.17 0 0 0 1.29-3.56.21.21 0 0 0-.3-.25 16.17 16.17 0 0 0-3.28 1.89 1.49 1.49 0 0 0-.2 1.6l-3.09 3.68a1.5 1.5 0 1 0 1 .8z"/>
  <path class="a" d="M112 117.18a1.1 1.1 0 1 1-1.56-1.56l2.54-2.54a1.1 1.1 0 0 1 1.56 1.56zm-17.12 0l-2.54-2.54a1.1 1.1 0 1 1 1.56-1.56l2.54 2.54a1.1 1.1 0 0 1-1.56 1.56m0 14a1.1 1.1 0 0 1 1.56 1.55l-2.54 2.54a1.1 1.1 0 0 1-1.56-1.56zm17.12 0l2.54 2.54a1.1 1.1 0 0 1-1.56 1.55l-2.54-2.54a1.1 1.1 0 0 1 1.56-1.56m-7.66-18a1 1 0 1 1-2 0v-3.6a1 1 0 1 1 2 0zm-11.9 11.9h-3.6a1 1 0 1 1 0-2h3.6a1 1 0 1 1 0 2m9.93 10.1a1 1 0 1 1 2 0v3.6a1 1 0 1 1-2 0zm12.08-12.07H118a1 1 0 1 1 0 2h-3.59a1 1 0 1 1 0-2M103.42 132.08a7.9 7.9 0 1 1 7.9-7.9 7.91 7.91 0 0 1-7.9 7.9"/>
  <path class="p" d="M339.81 117a10.86 10.86 0 0 0-4.26-.9c-1.44 0-3.3.63-3.3 2.91 0 3.63 9.18 2.1 9.18 9.12 0 4.59-3.63 6.33-7.86 6.33a18.45 18.45 0 0 1-5.37-.81l.39-3.78a10.12 10.12 0 0 0 4.74 1.29c1.59 0 3.72-.81 3.72-2.7 0-4-9.18-2.34-9.18-9.27 0-4.68 3.63-6.39 7.32-6.39a15.78 15.78 0 0 1 5 .75zM343.14 118.68h4.26l3.42 11.43h.06l3.12-11.43h4.68l3.32 11.43h.06l3.21-11.43h3.84l-4.74 15.45h-4.74l-3.36-11.79h-.06L353 134.13h-4.59zM371.64 112h4v3.84h-4zm0 6.66h4v15.45h-4zM389.07 121.92a9.87 9.87 0 0 0-3.6-.66c-1.08 0-2.37.39-2.37 1.71 0 2.46 7 .9 7 6.48 0 3.6-3.21 5-6.48 5a18 18 0 0 1-4.56-.66l.24-3.3a8.83 8.83 0 0 0 4 1c1 0 2.64-.39 2.64-1.89 0-3-7-1-7-6.54 0-3.33 2.91-4.8 6.06-4.8a18.48 18.48 0 0 1 4.38.57zM402.39 121.92a9.87 9.87 0 0 0-3.6-.66c-1.08 0-2.37.39-2.37 1.71 0 2.46 7 .9 7 6.48 0 3.6-3.21 5-6.48 5a18 18 0 0 1-4.56-.66l.24-3.3a8.83 8.83 0 0 0 4 1c1 0 2.64-.39 2.64-1.89 0-3-7-1-7-6.54 0-3.33 2.91-4.8 6.06-4.8a18.48 18.48 0 0 1 4.38.57zM406.89 113.19h6.72l5 15.87h.06l5-15.87h6.72v20.94h-4v-17.28h-.06l-5.64 17.28h-4L411 116.85l-.06.06v17.22h-4zM447.24 133.26a10.6 10.6 0 0 1-5.31 1.23c-5.1 0-8.07-2.94-8.07-8 0-4.47 2.37-8.16 7.17-8.16 5.73 0 7.35 3.93 7.35 9.33H437.7c.18 2.49 1.92 3.9 4.41 3.9a10.42 10.42 0 0 0 5.13-1.56zm-2.7-8.37c-.12-2-1-3.63-3.27-3.63s-3.39 1.56-3.57 3.63zM452.85 121.62h-3v-2.94h3v-3.09l4-1.29v4.38h3.57v2.94h-3.57v7.2c0 1.32.36 2.55 1.89 2.55a3.6 3.6 0 0 0 1.83-.42l.12 3.18a10.58 10.58 0 0 1-3 .36c-3.15 0-4.89-2-4.89-5zM463.35 113.19h5.16l8 15.66h.06v-15.66h4v20.94h-5.13l-8-15.66h-.06v15.66h-4zM497.25 133.26a10.6 10.6 0 0 1-5.31 1.23c-5.1 0-8.07-2.94-8.07-8 0-4.47 2.37-8.16 7.17-8.16 5.73 0 7.35 3.93 7.35 9.33h-10.68c.18 2.49 1.92 3.9 4.41 3.9a10.42 10.42 0 0 0 5.13-1.56zm-2.7-8.37c-.12-2-1-3.63-3.27-3.63s-3.39 1.56-3.57 3.63zM502.86 121.62h-3v-2.94h3v-3.09l4-1.29v4.38h3.57v2.94h-3.57v7.2c0 1.32.36 2.55 1.89 2.55a3.6 3.6 0 0 0 1.83-.42l.12 3.18a10.58 10.58 0 0 1-3 .36c-3.15 0-4.89-2-4.89-5z"/>
  <path class="q" d="M334.85 163.13v-3.51c2-1.89 9.06-7.83 9.06-11.67 0-1.92-1.71-2.82-3.42-2.82a9.09 9.09 0 0 0-4.83 1.68l-.33-3.48a13.93 13.93 0 0 1 6.21-1.5c4 0 6.57 2 6.57 6.12 0 4.44-4.47 8.52-7.89 11.88h8.55v3.3zM364.1 146a8.87 8.87 0 0 0-3.66-.84c-3.63 0-4.86 3.36-5 6.48l.06.06a4.55 4.55 0 0 1 4-2.1c4 0 6.12 2.52 6.12 6.39 0 4.53-2.22 7.53-7 7.53-5.82 0-7.11-4.83-7.11-9.75 0-5.67 1.83-11.91 8.61-11.91a13 13 0 0 1 4.41.75zm-8.28 10.68c0 2 .84 3.72 2.91 3.72s2.76-1.89 2.76-3.75c0-2-.84-3.93-2.85-3.93s-2.82 1.83-2.82 3.93zM368 152.72c0-5.25 1.59-10.89 7.26-10.89 6.12 0 7.32 6 7.32 10.89s-1.26 10.77-7.32 10.77c-6.42 0-7.26-6.39-7.26-10.77zm10.38 0c0-2.7 0-7.77-3.12-7.77s-3.06 5.07-3.06 7.77 0 7.65 3.06 7.65 3.15-5.01 3.15-7.65zM403.25 150.92a9.86 9.86 0 0 0-3.6-.66c-1.08 0-2.37.39-2.37 1.71 0 2.46 7 .9 7 6.48 0 3.6-3.21 5-6.48 5a18 18 0 0 1-4.56-.66l.24-3.3a8.83 8.83 0 0 0 4 1c1 0 2.64-.39 2.64-1.89 0-3-7-1-7-6.54 0-3.33 2.91-4.8 6.06-4.8a18.48 18.48 0 0 1 4.38.57zM408.71 150.62h-3v-2.94h3v-3.09l4-1.29v4.38h3.57v2.94h-3.57v7.2c0 1.32.36 2.55 1.89 2.55a3.6 3.6 0 0 0 1.83-.42l.12 3.18a10.58 10.58 0 0 1-3 .36c-3.15 0-4.89-2-4.89-5zM419.75 148.49a13.84 13.84 0 0 1 5.37-1.17c4.71 0 6.66 2 6.66 6.51v2c0 1.56 0 2.73.06 3.87s.09 2.25.18 3.45h-3.54a19 19 0 0 1-.18-2.31h-.06a5.52 5.52 0 0 1-4.77 2.67c-2.73 0-5.4-1.65-5.4-4.59a4.54 4.54 0 0 1 2.64-4.41 12.24 12.24 0 0 1 5.19-.9h2.22c0-2.49-1.11-3.33-3.48-3.33a8.08 8.08 0 0 0-4.77 1.68zm4.71 12.06a3.42 3.42 0 0 0 2.82-1.38 5.13 5.13 0 0 0 .84-3.18h-1.74c-1.8 0-4.47.3-4.47 2.67 0 1.34 1.09 1.89 2.55 1.89zM437.06 150.62h-3v-2.94h3v-3.09l4-1.29v4.38h3.57v2.94h-3.57v7.2c0 1.32.36 2.55 1.89 2.55a3.6 3.6 0 0 0 1.83-.42l.12 3.18a10.58 10.58 0 0 1-3 .36c-3.15 0-4.89-2-4.89-5zM447.5 141h4v3.84h-4zm0 6.66h4v15.45h-4zM462.82 147.32c4.59 0 8.1 3.09 8.1 8.19 0 4.44-3 8-8.1 8a7.63 7.63 0 0 1-8.07-8c.01-5.1 3.52-8.19 8.07-8.19zm0 13c3.09 0 3.9-2.76 3.9-5.34 0-2.37-1.26-4.59-3.9-4.59S459 152.72 459 155c0 2.58.77 5.37 3.82 5.37zM474.08 147.68h3.81v2.1h.06a5.77 5.77 0 0 1 5.07-2.46c3.66 0 5.25 2.58 5.25 6.06v9.75h-4v-8.25c0-1.89 0-4.44-2.61-4.44-2.91 0-3.54 3.15-3.54 5.13v7.56h-4zM501.59 150.92a9.87 9.87 0 0 0-3.6-.66c-1.08 0-2.37.39-2.37 1.71 0 2.46 7 .9 7 6.48 0 3.6-3.21 5-6.48 5a18 18 0 0 1-4.56-.66l.24-3.3a8.83 8.83 0 0 0 4 1c1 0 2.64-.39 2.64-1.89 0-3-7-1-7-6.54 0-3.33 2.91-4.8 6.06-4.8a18.48 18.48 0 0 1 4.38.57z"/>
  <path class="d" d="M447.64 42.71c1.48 0 3.31.08 5.08.08h1.76c3.29 0 2.62 6.14 6.31 6.14a4.62 4.62 0 0 0 1.37-.23 3.88 3.88 0 0 1 1.16-.19c3.82 0 5.38 6.49 7.94 8.94a35.53 35.53 0 0 1 9.74-1.59c9.49 0 14.68 5.46 24.63 11.34 4 2.35 16.17 4.27 17.42 6.72 6.22 12.16-16.9 22.72-8.83 36.23 1.83 7.33 0 5 8 6.84 6.73 1.5 12.08 1.3 17.4 6.14a5.87 5.87 0 0 0-.78 5.1 8.46 8.46 0 0 0 5.82 2.2h.17c.05 0 7.95 5.16 7.42 5.16a19.48 19.48 0 0 0 2.95.25c8 0 5.19-6.9 11.77-7.3 2.27 0 2.92-7.35 5.17-7.91a4.74 4.74 0 0 1 1.15-.16c3.71 0 2.59 5.89 7.19 6.06 5.63.54-8.94 29-4.55 31.11a5.21 5.21 0 0 0 1.7.28c.58 0 1.09-.08 1.64-.08a4.75 4.75 0 0 1 2.34.63c2.17 1.14 1.08 8.82-.44 10h-.1c-.84 0-6.53-1.18-7.34-1.26-3.13-.33-3.67-.39-5.94-1.65-2.91-1.62-1.13-5.41-2.78-6.12a5.32 5.32 0 0 0-2.14-.45c-8.29 0-16.94 18.69-7.31 21.55 6.18 1.58 4.6-.76 1.12 7.24-.52 4.61 7.38 7.15 4.4 12.25-1.22 2.09-2.36 2.87-3.4 2.87-2.66 0-4.67-5.14-5.77-6.46-2.73-3.29-3.07-8.38-7.24-9.68a3.93 3.93 0 0 0-1.12-.13c-3.35 0-10.78 2.11-12.07 2.76-4 2-.75 5.11-7.33 5.73h-.89c-6.33 0-6.93-6.88-11.64-6.89-.29-1.45-.26-14-1.18-14-.87 0-2.23 3.07-2.94 3.3a.64.64 0 0 1-.2 0c-1.29 0-2.52-4-5-4a3 3 0 0 0-1.5.46c-2.57 1.5-3.27 3.92-3.71 6.91-.32 2.19 3.56 8.49 3.06 12.17-1.48 11-12.79 15.53-14.44 25.76-1.09 1.66-4.13.59-4.46 2.77-.38 2.49.44 3.3 1.22 4.81-.09 0 3.84 10.84 4.33 10.84v-.09c-.13 1.55-6 7.24-5.86 7.57-1-1.8-2-2.32-3-2.32-1.33 0-2.55 1-3.42 1a.86.86 0 0 1-.77-.45c-.88-1.39 2.13-3.22 1.28-4.68-1.6-2.72-3.07-5.81-4.49-8.3s-4.42-1-5.24-4.36c-.26-1 1.83-1.84 1.69-2.2-2.09-5.28 4.68-1.79-1.63-6.57a5.52 5.52 0 0 0-3.5-1.17c-1.18 0-2.27.27-3.23.27a3 3 0 0 1-1.21-.22c-5.06-2.17-15.26-10.9-16.86-16-1.82-5.75 2-9.54 1.24-16-2.38-2.06-3.28-2.82-4.29-2.82-1.25 0-2.66 1.17-7.22 2.52-.22 1.81 1.07 3.08 1.37 4.35-4.23 6-14.56 7.63-15 13.47-.22 3.08 5.47 5.8 4 10.7-.4 1.33-4.68 3-5.36 4.35a1.79 1.79 0 0 0 .16-.34c-.05 0-1.74 2.86-3.47 5.28-2 2.8-2.64 6.73-8.58 6.73h-.85c-6.24 0 1.73 7.18-7.14 7.18-3.67 0-6.28-3.91-8.92-4.5a20.36 20.36 0 0 0-4.33-.6c-3.5 0-4.34 1.82-8.92 4-5.66 2.69-9.48 3.13-15.21 3.87-3 .39-6.58 4.2-10.06 4.2a4.33 4.33 0 0 1-2.41-.72c-4.51-2.91-4.3-12.85-7.86-16.59-.53-.56-4.12-2.89-4.83-2.89-.15 0-.17.1 0 .34-1.11-1.73.25-5.39-1.26-7.73-3.63-5.59-5.33 0-6.32-7.33-.36-2.68 3.2-5 3-7.11-.22-2.38-3.14-4.36-3.21-5.78-.3-6.36-2-7.47 6.57-9.64-3.17-5.14-13.91-7.34-21.28-7.34a26.34 26.34 0 0 0-4 .28c-6.58 1-13.48 5.53-18.67 11.24-1.5 1.65-1.61 2.85-.5 4l.08 3.34c.92 3.12.81 3.73 2.86 3.73h1.22c.76 8.78-17.09 13.12-24.33 13.12h-1.12c1.52 0 .54-7.63.71-8.43 1.33-3.69 7.41-2.44 10.23-4.56-.76-9.51 7.16-11.08-3.49-16.42 3.22-2.28 3.56-10.11 6.74-13.26a5.48 5.48 0 0 0-3-2.63c6.34-8.74 16.63-14.85 25.45-20.54-.15-1.78-2.21-1.53-2.49-3.16 4.91-9.73-2.07-10.88 6.92-17.68 2.79-2.12 7-2.14 9.83-4.78 2.41-2.27 2.62-5.09 4.83-7.92 4.09-5.24 10-11 13.9-16 1.22-1.56 5.15-6.88 7.43-6.88 2.64-2.17-.22-2.72-3.74-2.72a55.1 55.1 0 0 0-7.73.61c2-2.79 1.93-7.78 7.1-9.47-.2-2.19-1-2.36.37-4.74a3.24 3.24 0 0 0 .56 0c2.23 0 6.44-1.63 8.82-1.63a2.75 2.75 0 0 1 1.1.18c2.17 1 3 4 3.28 4.14 1.87.92 6.21 4.28 10.56 4.28 2.4 0 4.79-1 6.78-4 .24-1.2-2.59-2.8-1.33-3.34 0-.72.41-1 .94-1 1.29 0 3.52 1.54 4 1.68 3.58-2.36 2.17-11.76 9.61-11.76a13.83 13.83 0 0 1 4 .7c.15 1.39 1.33 2.28-1.5 3.69.18 1.75-.17 1.23.83 2.11 6.66-1.29 8.75-4.11 14.43-4.22 1.39 0 3.66 2.43 6.18 2.43h.37c3.23-.32 5.46-2.16 7.58-2.71 1.61-.42 7.13-3.39 8.52-3.39 4 .06 5.31 4.37 7.4 4.53.55 0 1.11.06 1.67.06a38.53 38.53 0 0 0 7.93-.91c2.28-.52 1.5-1.7 6.18-2.77 3.52-.8 2-5.87-.79-5.87-.9 0-1.93.55-3 2-.47 0-.91.07-1.33.07a10.18 10.18 0 0 1-5.65-1.65c0-2.65 4.87-11.69 8.4-14.06a6.87 6.87 0 0 1 2.83-.33m133.92 115.68l.46.24-.34-.18-.12-.06M447.64 37.71c-2 0-4 .09-5.62 1.17-4.58 3.06-10.63 13.45-10.62 18.22a5 5 0 0 0 2.19 4.13h-.85l-.21-.23c-1.42-1.5-4.07-4.29-8.51-4.36h-.09c-1.82 0-3.69.82-7.13 2.39-.89.41-2.23 1-2.67 1.17a18.77 18.77 0 0 0-3.42 1.37 10.93 10.93 0 0 1-3.19 1.18A11 11 0 0 1 406 62a9.24 9.24 0 0 0-4.73-1.64h-.11a22.14 22.14 0 0 0-8.85 2.12A5 5 0 0 0 389 59a18.62 18.62 0 0 0-5.49-.92c-8.22 0-10.56 7-11.68 10.34a7.51 7.51 0 0 0-2-.28 5.78 5.78 0 0 0-5.41 3.46 5.38 5.38 0 0 0-.49 4.86 2.65 2.65 0 0 1-.49 0c-2 0-4.65-1.6-6.41-2.66l-.39-.23a10.82 10.82 0 0 0-5-5.09 7.55 7.55 0 0 0-3.14-.62 24.84 24.84 0 0 0-5.76 1 26.32 26.32 0 0 1-3 .64 5 5 0 0 0-5 2.47 9.3 9.3 0 0 0-1.43 4.49 15.93 15.93 0 0 0-4.85 7.29 13.48 13.48 0 0 1-.85 1.92 5 5 0 0 0 4.86 7.94l-.48.61-.28.37c-1.81 2.31-4.1 4.82-6.53 7.48s-5.18 5.66-7.37 8.47a22.86 22.86 0 0 0-2.73 4.71 8.14 8.14 0 0 1-1.58 2.64 10.48 10.48 0 0 1-3.58 1.66 19.62 19.62 0 0 0-5.84 2.78c-6.66 5-7.08 8.68-6.95 12.91a11.25 11.25 0 0 1-1.42 6.5 5 5 0 0 0-.46 3.11 6.87 6.87 0 0 0 .24 1c-7.91 5.09-16.5 10.92-22.32 18.94a5 5 0 0 0 .57 6.53c-.61 1.37-1.08 2.78-1.53 4.12a19.3 19.3 0 0 1-1.71 4.16 5 5 0 0 0 .73 8.49 18.34 18.34 0 0 1 2.66 1.55c-.09.26-.2.56-.29.81a24.44 24.44 0 0 0-1.57 6.06l-.47.09c-2.91.53-7.77 1.41-9.53 6.32a5 5 0 0 0-.19.67 11.92 11.92 0 0 0-.05 3.15c0 .72.13 2.35.1 3.43a5 5 0 0 0 3.69 7.85c.47 0 1 .06 1.52.06 5.43 0 19.52-2.37 26-9.43a11.8 11.8 0 0 0 3.33-9.13 5 5 0 0 0-4.09-4.49l-.06-2.23a5 5 0 0 0-.17-1.18c4.64-4.87 10.25-8.21 15.13-9a21 21 0 0 1 3.26-.21 39.14 39.14 0 0 1 11.3 1.68l-.13.16c-2.14 2.6-1.87 5.48-1.63 8 .07.74.14 1.5.18 2.36a8.69 8.69 0 0 0 2.38 5.09l.44.56-.1.14c-1.1 1.56-2.93 4.16-2.47 7.54.5 3.67 1.45 7.67 6.49 8.62a5.16 5.16 0 0 1 .48.63 11.81 11.81 0 0 1 .06 1.77 10.39 10.39 0 0 0 1.3 6.04 5 5 0 0 0 3.79 2.25c.63.38 1.35.85 1.73 1.14.72.94 1.46 3.52 2 5.43 1.22 4.3 2.6 9.17 6.66 11.79a9.29 9.29 0 0 0 5.12 1.52c3.28 0 6.05-1.64 8.28-3a15.15 15.15 0 0 1 2.47-1.29l.45-.06c5.59-.73 10-1.3 16.21-4.25a38 38 0 0 0 4.38-2.47c1.59-1 1.7-1 2.4-1a15.87 15.87 0 0 1 3.13.45 15.4 15.4 0 0 1 1.55 1.08c2 1.5 4.75 3.56 8.56 3.56 1.29 0 5.14 0 7.63-2.68a7.4 7.4 0 0 0 1.93-4.55c6.46-.6 8.9-4.93 10.26-7.34.3-.54.59-1 .85-1.41 1.18-1.66 2.31-3.44 3-4.55l.23-.28c.31-.22.87-.57 1.26-.82 1.94-1.21 4.14-2.59 4.89-5.1 1.58-5.3-1.39-9.23-3-11.34l-.58-.78a25.86 25.86 0 0 1 4.46-3c3.23-1.89 6.88-4 9.38-7.59a5 5 0 0 0 .43-.73l-.08.29c-.76 2.93-1.71 6.58-.3 11 2.28 7.21 14.12 16.66 19.66 19a7.91 7.91 0 0 0 3.19.62 16 16 0 0 0 2.08-.17c.33 0 .65-.08.92-.1a7.39 7.39 0 0 0-.05 1.1 5.69 5.69 0 0 0-1.14 5 8.17 8.17 0 0 0 6 6.14h.07c.51.91 1 1.92 1.58 3s1 1.94 1.55 2.92a6.4 6.4 0 0 0-.09 6.77 5.82 5.82 0 0 0 5 2.78 7 7 0 0 0 2.53-.51 5 5 0 0 0 8.18-.73c.27-.32.74-.84 1.11-1.25 3.59-4 5.19-6 5.39-8.38v-.15-.17a5 5 0 0 0-1.26-3.44c-.9-2.05-2.76-7.08-3.23-8.49a5 5 0 0 0-.44-1.19 7 7 0 0 0 3-2.54 5 5 0 0 0 .75-1.94c.58-3.6 3-6.49 5.89-9.84 3.57-4.19 7.61-8.95 8.57-16.06.45-3.33-.89-6.84-2.07-9.94-.31-.83-.77-2-.93-2.63.08-.5.17-.9.25-1.23a6.66 6.66 0 0 0 4 2.47c0 .61 0 1.18.06 1.64a38.56 38.56 0 0 0 .32 5.1 5 5 0 0 0 4.71 4 14 14 0 0 1 1.31 1.37c1.82 2.07 4.86 5.52 10.52 5.52.44 0 .9 0 1.36-.07 6.05-.57 7.92-3.23 9-6l.09-.22a45.69 45.69 0 0 1 9.63-2.22 10.21 10.21 0 0 1 1.67 2.87 23.07 23.07 0 0 0 3 5.07c.12.18.4.67.61 1 1.57 2.73 4.2 7.3 9.06 7.3 3 0 5.64-1.8 7.71-5.34 3.47-5.93-.48-10.55-2.37-12.77-.35-.41-.82-1-1.13-1.39.62-1.29 1.15-2.18 1.52-2.82.77-1.3 2-3.48.84-6.09s-3.72-3.05-5.07-3.29c-.59-.1-1.32-.23-2.27-.47-.3-.1-.82-.42-.52-2.51a14.59 14.59 0 0 1 4.91-8.53 8.23 8.23 0 0 0 4 5.25c3 1.67 4.27 1.87 7.8 2.25.32 0 1.45.26 2.29.42a37.05 37.05 0 0 0 5.62.88 5.1 5.1 0 0 0 3.15-1.05c3.48-2.67 3.74-9.45 3.55-11.62a9.51 9.51 0 0 0-1.51-4.67 5.63 5.63 0 0 0-2.7-2.27 9.77 9.77 0 0 0-3.07-.94c.63-2.68 1.86-6.51 2.7-9.12 3.28-10.2 4.88-15.7 2.4-19.46a6.22 6.22 0 0 0-4.36-2.75l-.32-.61c-.83-1.64-2.77-5.5-7.62-5.5a9.76 9.76 0 0 0-2.36.31c-3.62.91-5 4.47-6 7.07-.11.29-.25.66-.39 1a10.9 10.9 0 0 0-7 5.53c-.91 1.46-.91 1.46-2.37 1.46h-.83c-.8-.6-1.79-1.27-3-2.07-4.64-3.12-4.91-3.3-6.52-3.31h-.75a5 5 0 0 0-1.09-6c-5.2-4.72-10.46-5.64-15.55-6.53-1.34-.23-2.72-.47-4.12-.79-1.56-.35-2.77-.55-3.71-.7-.15-.67-.33-1.48-.58-2.47a5 5 0 0 0-.76-1.66c-2-3.76-.24-7.12 4.25-13.68 4.12-6 9.24-13.48 4.91-21.95-1.62-3.17-5.32-4.36-12.28-6.36a44.77 44.77 0 0 1-7.05-2.39c-2.35-1.39-4.43-2.75-6.43-4.07-6.49-4.27-12.1-8-20.74-8a36.37 36.37 0 0 0-7.66.88l-.27-.47c-1.76-3.1-4.41-7.79-9.78-7.79a8.58 8.58 0 0 0-1.37.11c-.81-1.77-2.69-5.83-7.48-5.83h-6.85zm-11 148.9l.37-.16a13.58 13.58 0 0 1-.21 1.51 5 5 0 0 0-.14-1.26v-.09z"/>
  <path class="s" d="M634.08 29.4a57.35 57.35 0 0 1 49.51-27.9H829.9a57.17 57.17 0 0 1 57.6 57.1v169.8c0 31.81-25.79 58.1-57.6 58.1H683.59c-31.81 0-58.1-26.29-58.1-58.1V101.08s-39.3-45.29-151.67.58c57.75-66 154.12-58 154.12-58a57.26 57.26 0 0 1 6.13-14.53M159.99 108.5h137"/>
  <circle class="d" cx="151.74" cy="108.56" r="4.25"/>
  <circle class="d" cx="301.91" cy="108.56" r="4.25"/>
  <path class="t" d="M31.12 42.62H34V29.09h-4.55l-2.37 8.7-2.19-8.7h-4.82v13.53H23v-10.7l2.93 10.7H28l3-10.7v10.7zm7.37-5.91c0-.54 0-2.48 1.57-2.48 1.26 0 1.59 1.2 1.59 2.48zm6 .93c0-5.27-3.47-5.27-4.38-5.27-2.89 0-4.48 2.46-4.48 5.18 0 3.08 1.57 5.23 5.12 5.23a9.51 9.51 0 0 0 3.2-.58l-.06-2.31a6.28 6.28 0 0 1-2.85.8 2.25 2.25 0 0 1-2.5-2.31h6v-.74zm.81-3h1.67v5.12a2.69 2.69 0 0 0 3 3 7.29 7.29 0 0 0 2.03-.25v-2.15a2.27 2.27 0 0 1-1 .21c-.58 0-1-.27-1-1.26v-4.63h2v-2.16h-2v-3l-3 1v2.07h-1.75v2.15zm10.51 2c0-.54 0-2.48 1.57-2.48 1.26 0 1.59 1.2 1.59 2.48zm6 .93c0-5.27-3.47-5.27-4.38-5.27-2.89 0-4.48 2.46-4.48 5.18 0 3.08 1.57 5.23 5.12 5.23a9.51 9.51 0 0 0 3.2-.58l-.06-2.31a6.28 6.28 0 0 1-2.85.8 2.25 2.25 0 0 1-2.5-2.31h6v-.74zm1-.1c0 3.06 1.65 5.23 4.75 5.23s4.75-2.17 4.75-5.23-1.65-5.18-4.75-5.18-4.75 2.15-4.75 5.18zm3.18 0c0-2 .5-3.08 1.57-3.08S69 35.57 69 37.54s-.5 3.14-1.57 3.14-1.57-1.16-1.57-3.14zm15.21-8.15a13.3 13.3 0 0 0-3.2-.46c-4.54 0-4.69 3.45-4.69 3.86 0 4.83 5.33 3.55 5.33 6.16 0 1.11-1 1.61-2 1.61a7.66 7.66 0 0 1-3-.83l-.17 2.64a13 13 0 0 0 3.64.56c2.69 0 4.73-1.55 4.73-4.11 0-4.81-5.33-3.66-5.33-6.13 0-1 .78-1.47 1.8-1.47a6.45 6.45 0 0 1 2.68.7l.14-2.52zm.95 3.2l2.71 10.1h3.34l1.55-7.39 1.65 7.39h3.26l2.69-10.1h-2.87l-1.42 7.19-1.38-7.19h-3.52l-1.43 7.19-1.47-7.19zm16.6 10.1h3.06v-10.1h-3.07v10.1zm0-11.83h3.06v-2.71h-3.07v2.72zm11.48 2a9.28 9.28 0 0 0-2.81-.41c-3 0-3.78 1.94-3.78 3a3.14 3.14 0 0 0 2.11 3.1c1.32.54 2.11.74 2.11 1.18s-.1 1-1.53 1a5 5 0 0 1-2.52-.7l-.08 2.36a10.46 10.46 0 0 0 3.32.49c2 0 3.72-.87 3.72-3.12a2.82 2.82 0 0 0-2.11-2.95c-1.67-.62-2.11-.83-2.11-1.45 0-.35.35-.74 1.14-.74a6.33 6.33 0 0 1 2.46.54l.08-2.29zm8.36 0a9.28 9.28 0 0 0-2.81-.41c-3 0-3.78 1.94-3.78 3a3.14 3.14 0 0 0 2.11 3.1c1.32.54 2.11.74 2.11 1.18s-.1 1-1.53 1a5 5 0 0 1-2.52-.7l-.08 2.36a10.46 10.46 0 0 0 3.32.49c2 0 3.72-.87 3.72-3.12a2.82 2.82 0 0 0-2.13-2.98c-1.67-.62-2.11-.83-2.11-1.45 0-.35.35-.74 1.14-.74a6.33 6.33 0 0 1 2.46.54l.08-2.29z"/>
</svg>
