<svg xmlns="http://www.w3.org/2000/svg" xmlns:xlink="http://www.w3.org/1999/xlink" viewBox="0 0 40.38 92.02"><defs><style>.a{fill:url(#a);}.b{fill:url(#b);}</style><linearGradient id="a" x1="20.19" y1="84.06" x2="20.19" y2="25.94" gradientUnits="userSpaceOnUse"><stop offset="0" stop-color="#8cc8d2"/><stop offset="0.89" stop-color="#ffeba0"/></linearGradient><linearGradient id="b" x1="20.19" x2="20.19" y2="92.02" gradientUnits="userSpaceOnUse"><stop offset="0" stop-color="#bfbfbf"/><stop offset="0.33" stop-color="#bbb"/><stop offset="0.65" stop-color="#b0b0b0"/><stop offset="0.96" stop-color="#9c9c9c"/><stop offset="1" stop-color="#999"/></linearGradient></defs><title>temp</title><path class="a" d="M25,30.74a4.81,4.81,0,0,0-9.62,0V61.24a11.92,11.92,0,1,0,9.62,0Z"/><path class="b" d="M33.28,56.47V13.08a13.09,13.09,0,0,0-26.17,0V56.47A20.17,20.17,0,0,0,8.57,88.34a20.19,20.19,0,0,0,31.8-16.5A20.32,20.32,0,0,0,33.28,56.47Zm-4.35,2.94a15.18,15.18,0,0,1,0,24.86,15.17,15.17,0,0,1-17.47,0,15.18,15.18,0,0,1,0-24.85L12.1,59V13.08A8.09,8.09,0,0,1,25.92,7.37a8,8,0,0,1,2.37,5.72V59Z"/></svg>